G04 #@! TF.GenerationSoftware,KiCad,Pcbnew,5.1.12-84ad8e8a86~92~ubuntu20.04.1*
G04 #@! TF.CreationDate,2022-02-16T15:18:21-08:00*
G04 #@! TF.ProjectId,Zooids,5a6f6f69-6473-42e6-9b69-6361645f7063,rev?*
G04 #@! TF.SameCoordinates,Original*
G04 #@! TF.FileFunction,Soldermask,Bot*
G04 #@! TF.FilePolarity,Negative*
%FSLAX46Y46*%
G04 Gerber Fmt 4.6, Leading zero omitted, Abs format (unit mm)*
G04 Created by KiCad (PCBNEW 5.1.12-84ad8e8a86~92~ubuntu20.04.1) date 2022-02-16 15:18:21*
%MOMM*%
%LPD*%
G01*
G04 APERTURE LIST*
%ADD10C,0.500000*%
%ADD11O,1.550000X0.775000*%
%ADD12O,0.650000X1.300000*%
%ADD13C,0.264922*%
%ADD14R,0.725000X0.522000*%
%ADD15C,0.650000*%
%ADD16C,1.000000*%
%ADD17R,0.900000X1.300000*%
%ADD18C,0.250000*%
%ADD19R,1.600000X0.900000*%
%ADD20C,0.150000*%
%ADD21R,0.711200X0.711200*%
%ADD22R,0.228600X0.812800*%
%ADD23R,0.812800X0.228600*%
%ADD24C,1.400000*%
%ADD25C,1.300000*%
G04 APERTURE END LIST*
D10*
G04 #@! TO.C,MK1*
X159272500Y-97355000D02*
G75*
G03*
X159272500Y-97355000I-662500J0D01*
G01*
G04 #@! TO.C,MK2*
X149308000Y-97365000D02*
G75*
G03*
X149308000Y-97365000I-662500J0D01*
G01*
G04 #@! TD*
D11*
G04 #@! TO.C,J1*
X163500000Y-93655000D03*
X163500000Y-100655000D03*
D12*
X160800000Y-94655000D03*
X160800000Y-99655000D03*
G04 #@! TD*
D13*
G04 #@! TO.C,U2*
X145390000Y-100992000D03*
X144890000Y-100992000D03*
X145140000Y-101425000D03*
X145390000Y-101858000D03*
X144890000Y-101858000D03*
G04 #@! TD*
D14*
G04 #@! TO.C,MK1*
X157772500Y-99429000D03*
X157772500Y-98607000D03*
X159447500Y-98607000D03*
X159447500Y-99429000D03*
D15*
X158610000Y-97355000D03*
G04 #@! TD*
D16*
G04 #@! TO.C,TP8*
X142860000Y-98455000D03*
G04 #@! TD*
D17*
G04 #@! TO.C,U4*
X153680000Y-97275000D03*
G36*
G01*
X154285000Y-98151900D02*
X154285000Y-97898100D01*
G75*
G02*
X154293100Y-97890000I8100J0D01*
G01*
X155036900Y-97890000D01*
G75*
G02*
X155045000Y-97898100I0J-8100D01*
G01*
X155045000Y-98151900D01*
G75*
G02*
X155036900Y-98160000I-8100J0D01*
G01*
X154293100Y-98160000D01*
G75*
G02*
X154285000Y-98151900I0J8100D01*
G01*
G37*
G36*
G01*
X154285000Y-97651900D02*
X154285000Y-97398100D01*
G75*
G02*
X154293100Y-97390000I8100J0D01*
G01*
X155036900Y-97390000D01*
G75*
G02*
X155045000Y-97398100I0J-8100D01*
G01*
X155045000Y-97651900D01*
G75*
G02*
X155036900Y-97660000I-8100J0D01*
G01*
X154293100Y-97660000D01*
G75*
G02*
X154285000Y-97651900I0J8100D01*
G01*
G37*
G36*
G01*
X154285000Y-97151900D02*
X154285000Y-96898100D01*
G75*
G02*
X154293100Y-96890000I8100J0D01*
G01*
X155036900Y-96890000D01*
G75*
G02*
X155045000Y-96898100I0J-8100D01*
G01*
X155045000Y-97151900D01*
G75*
G02*
X155036900Y-97160000I-8100J0D01*
G01*
X154293100Y-97160000D01*
G75*
G02*
X154285000Y-97151900I0J8100D01*
G01*
G37*
G36*
G01*
X154285000Y-96651900D02*
X154285000Y-96398100D01*
G75*
G02*
X154293100Y-96390000I8100J0D01*
G01*
X155036900Y-96390000D01*
G75*
G02*
X155045000Y-96398100I0J-8100D01*
G01*
X155045000Y-96651900D01*
G75*
G02*
X155036900Y-96660000I-8100J0D01*
G01*
X154293100Y-96660000D01*
G75*
G02*
X154285000Y-96651900I0J8100D01*
G01*
G37*
G36*
G01*
X152315000Y-96651900D02*
X152315000Y-96398100D01*
G75*
G02*
X152323100Y-96390000I8100J0D01*
G01*
X153066900Y-96390000D01*
G75*
G02*
X153075000Y-96398100I0J-8100D01*
G01*
X153075000Y-96651900D01*
G75*
G02*
X153066900Y-96660000I-8100J0D01*
G01*
X152323100Y-96660000D01*
G75*
G02*
X152315000Y-96651900I0J8100D01*
G01*
G37*
G36*
G01*
X152315000Y-97151900D02*
X152315000Y-96898100D01*
G75*
G02*
X152323100Y-96890000I8100J0D01*
G01*
X153066900Y-96890000D01*
G75*
G02*
X153075000Y-96898100I0J-8100D01*
G01*
X153075000Y-97151900D01*
G75*
G02*
X153066900Y-97160000I-8100J0D01*
G01*
X152323100Y-97160000D01*
G75*
G02*
X152315000Y-97151900I0J8100D01*
G01*
G37*
G36*
G01*
X152315000Y-97651900D02*
X152315000Y-97398100D01*
G75*
G02*
X152323100Y-97390000I8100J0D01*
G01*
X153066900Y-97390000D01*
G75*
G02*
X153075000Y-97398100I0J-8100D01*
G01*
X153075000Y-97651900D01*
G75*
G02*
X153066900Y-97660000I-8100J0D01*
G01*
X152323100Y-97660000D01*
G75*
G02*
X152315000Y-97651900I0J8100D01*
G01*
G37*
G36*
G01*
X152315000Y-98151900D02*
X152315000Y-97898100D01*
G75*
G02*
X152323100Y-97890000I8100J0D01*
G01*
X153066900Y-97890000D01*
G75*
G02*
X153075000Y-97898100I0J-8100D01*
G01*
X153075000Y-98151900D01*
G75*
G02*
X153066900Y-98160000I-8100J0D01*
G01*
X152323100Y-98160000D01*
G75*
G02*
X152315000Y-98151900I0J8100D01*
G01*
G37*
G04 #@! TD*
D18*
G04 #@! TO.C,U9*
X159680000Y-102565000D03*
X159680000Y-102165000D03*
X159680000Y-101765000D03*
X159280000Y-102565000D03*
X159280000Y-102165000D03*
X159280000Y-101765000D03*
X158880000Y-102565000D03*
X158880000Y-102165000D03*
X158880000Y-101765000D03*
G04 #@! TD*
G04 #@! TO.C,R13*
G36*
G01*
X153615000Y-93345000D02*
X153245000Y-93345000D01*
G75*
G02*
X153110000Y-93210000I0J135000D01*
G01*
X153110000Y-92940000D01*
G75*
G02*
X153245000Y-92805000I135000J0D01*
G01*
X153615000Y-92805000D01*
G75*
G02*
X153750000Y-92940000I0J-135000D01*
G01*
X153750000Y-93210000D01*
G75*
G02*
X153615000Y-93345000I-135000J0D01*
G01*
G37*
G36*
G01*
X153615000Y-94365000D02*
X153245000Y-94365000D01*
G75*
G02*
X153110000Y-94230000I0J135000D01*
G01*
X153110000Y-93960000D01*
G75*
G02*
X153245000Y-93825000I135000J0D01*
G01*
X153615000Y-93825000D01*
G75*
G02*
X153750000Y-93960000I0J-135000D01*
G01*
X153750000Y-94230000D01*
G75*
G02*
X153615000Y-94365000I-135000J0D01*
G01*
G37*
G04 #@! TD*
G04 #@! TO.C,R12*
G36*
G01*
X152455000Y-93355000D02*
X152085000Y-93355000D01*
G75*
G02*
X151950000Y-93220000I0J135000D01*
G01*
X151950000Y-92950000D01*
G75*
G02*
X152085000Y-92815000I135000J0D01*
G01*
X152455000Y-92815000D01*
G75*
G02*
X152590000Y-92950000I0J-135000D01*
G01*
X152590000Y-93220000D01*
G75*
G02*
X152455000Y-93355000I-135000J0D01*
G01*
G37*
G36*
G01*
X152455000Y-94375000D02*
X152085000Y-94375000D01*
G75*
G02*
X151950000Y-94240000I0J135000D01*
G01*
X151950000Y-93970000D01*
G75*
G02*
X152085000Y-93835000I135000J0D01*
G01*
X152455000Y-93835000D01*
G75*
G02*
X152590000Y-93970000I0J-135000D01*
G01*
X152590000Y-94240000D01*
G75*
G02*
X152455000Y-94375000I-135000J0D01*
G01*
G37*
G04 #@! TD*
G04 #@! TO.C,R4*
G36*
G01*
X155945000Y-91585000D02*
X156315000Y-91585000D01*
G75*
G02*
X156450000Y-91720000I0J-135000D01*
G01*
X156450000Y-91990000D01*
G75*
G02*
X156315000Y-92125000I-135000J0D01*
G01*
X155945000Y-92125000D01*
G75*
G02*
X155810000Y-91990000I0J135000D01*
G01*
X155810000Y-91720000D01*
G75*
G02*
X155945000Y-91585000I135000J0D01*
G01*
G37*
G36*
G01*
X155945000Y-90565000D02*
X156315000Y-90565000D01*
G75*
G02*
X156450000Y-90700000I0J-135000D01*
G01*
X156450000Y-90970000D01*
G75*
G02*
X156315000Y-91105000I-135000J0D01*
G01*
X155945000Y-91105000D01*
G75*
G02*
X155810000Y-90970000I0J135000D01*
G01*
X155810000Y-90700000D01*
G75*
G02*
X155945000Y-90565000I135000J0D01*
G01*
G37*
G04 #@! TD*
G04 #@! TO.C,C6*
G36*
G01*
X151160000Y-97425000D02*
X151500000Y-97425000D01*
G75*
G02*
X151640000Y-97565000I0J-140000D01*
G01*
X151640000Y-97845000D01*
G75*
G02*
X151500000Y-97985000I-140000J0D01*
G01*
X151160000Y-97985000D01*
G75*
G02*
X151020000Y-97845000I0J140000D01*
G01*
X151020000Y-97565000D01*
G75*
G02*
X151160000Y-97425000I140000J0D01*
G01*
G37*
G36*
G01*
X151160000Y-96465000D02*
X151500000Y-96465000D01*
G75*
G02*
X151640000Y-96605000I0J-140000D01*
G01*
X151640000Y-96885000D01*
G75*
G02*
X151500000Y-97025000I-140000J0D01*
G01*
X151160000Y-97025000D01*
G75*
G02*
X151020000Y-96885000I0J140000D01*
G01*
X151020000Y-96605000D01*
G75*
G02*
X151160000Y-96465000I140000J0D01*
G01*
G37*
G04 #@! TD*
D19*
G04 #@! TO.C,U6*
X158080000Y-89350000D03*
G36*
G01*
X157201200Y-89965000D02*
X157458800Y-89965000D01*
G75*
G02*
X157470000Y-89976200I0J-11200D01*
G01*
X157470000Y-90693800D01*
G75*
G02*
X157458800Y-90705000I-11200J0D01*
G01*
X157201200Y-90705000D01*
G75*
G02*
X157190000Y-90693800I0J11200D01*
G01*
X157190000Y-89976200D01*
G75*
G02*
X157201200Y-89965000I11200J0D01*
G01*
G37*
G36*
G01*
X157701200Y-89965000D02*
X157958800Y-89965000D01*
G75*
G02*
X157970000Y-89976200I0J-11200D01*
G01*
X157970000Y-90693800D01*
G75*
G02*
X157958800Y-90705000I-11200J0D01*
G01*
X157701200Y-90705000D01*
G75*
G02*
X157690000Y-90693800I0J11200D01*
G01*
X157690000Y-89976200D01*
G75*
G02*
X157701200Y-89965000I11200J0D01*
G01*
G37*
G36*
G01*
X158201200Y-89965000D02*
X158458800Y-89965000D01*
G75*
G02*
X158470000Y-89976200I0J-11200D01*
G01*
X158470000Y-90693800D01*
G75*
G02*
X158458800Y-90705000I-11200J0D01*
G01*
X158201200Y-90705000D01*
G75*
G02*
X158190000Y-90693800I0J11200D01*
G01*
X158190000Y-89976200D01*
G75*
G02*
X158201200Y-89965000I11200J0D01*
G01*
G37*
G36*
G01*
X158701200Y-89965000D02*
X158958800Y-89965000D01*
G75*
G02*
X158970000Y-89976200I0J-11200D01*
G01*
X158970000Y-90693800D01*
G75*
G02*
X158958800Y-90705000I-11200J0D01*
G01*
X158701200Y-90705000D01*
G75*
G02*
X158690000Y-90693800I0J11200D01*
G01*
X158690000Y-89976200D01*
G75*
G02*
X158701200Y-89965000I11200J0D01*
G01*
G37*
G36*
G01*
X158701200Y-87995000D02*
X158958800Y-87995000D01*
G75*
G02*
X158970000Y-88006200I0J-11200D01*
G01*
X158970000Y-88723800D01*
G75*
G02*
X158958800Y-88735000I-11200J0D01*
G01*
X158701200Y-88735000D01*
G75*
G02*
X158690000Y-88723800I0J11200D01*
G01*
X158690000Y-88006200D01*
G75*
G02*
X158701200Y-87995000I11200J0D01*
G01*
G37*
G36*
G01*
X158201200Y-87995000D02*
X158458800Y-87995000D01*
G75*
G02*
X158470000Y-88006200I0J-11200D01*
G01*
X158470000Y-88723800D01*
G75*
G02*
X158458800Y-88735000I-11200J0D01*
G01*
X158201200Y-88735000D01*
G75*
G02*
X158190000Y-88723800I0J11200D01*
G01*
X158190000Y-88006200D01*
G75*
G02*
X158201200Y-87995000I11200J0D01*
G01*
G37*
G36*
G01*
X157701200Y-87995000D02*
X157958800Y-87995000D01*
G75*
G02*
X157970000Y-88006200I0J-11200D01*
G01*
X157970000Y-88723800D01*
G75*
G02*
X157958800Y-88735000I-11200J0D01*
G01*
X157701200Y-88735000D01*
G75*
G02*
X157690000Y-88723800I0J11200D01*
G01*
X157690000Y-88006200D01*
G75*
G02*
X157701200Y-87995000I11200J0D01*
G01*
G37*
G36*
G01*
X157201200Y-87995000D02*
X157458800Y-87995000D01*
G75*
G02*
X157470000Y-88006200I0J-11200D01*
G01*
X157470000Y-88723800D01*
G75*
G02*
X157458800Y-88735000I-11200J0D01*
G01*
X157201200Y-88735000D01*
G75*
G02*
X157190000Y-88723800I0J11200D01*
G01*
X157190000Y-88006200D01*
G75*
G02*
X157201200Y-87995000I11200J0D01*
G01*
G37*
G04 #@! TD*
G04 #@! TO.C,U5*
X149420000Y-89060000D03*
G36*
G01*
X148541200Y-89675000D02*
X148798800Y-89675000D01*
G75*
G02*
X148810000Y-89686200I0J-11200D01*
G01*
X148810000Y-90403800D01*
G75*
G02*
X148798800Y-90415000I-11200J0D01*
G01*
X148541200Y-90415000D01*
G75*
G02*
X148530000Y-90403800I0J11200D01*
G01*
X148530000Y-89686200D01*
G75*
G02*
X148541200Y-89675000I11200J0D01*
G01*
G37*
G36*
G01*
X149041200Y-89675000D02*
X149298800Y-89675000D01*
G75*
G02*
X149310000Y-89686200I0J-11200D01*
G01*
X149310000Y-90403800D01*
G75*
G02*
X149298800Y-90415000I-11200J0D01*
G01*
X149041200Y-90415000D01*
G75*
G02*
X149030000Y-90403800I0J11200D01*
G01*
X149030000Y-89686200D01*
G75*
G02*
X149041200Y-89675000I11200J0D01*
G01*
G37*
G36*
G01*
X149541200Y-89675000D02*
X149798800Y-89675000D01*
G75*
G02*
X149810000Y-89686200I0J-11200D01*
G01*
X149810000Y-90403800D01*
G75*
G02*
X149798800Y-90415000I-11200J0D01*
G01*
X149541200Y-90415000D01*
G75*
G02*
X149530000Y-90403800I0J11200D01*
G01*
X149530000Y-89686200D01*
G75*
G02*
X149541200Y-89675000I11200J0D01*
G01*
G37*
G36*
G01*
X150041200Y-89675000D02*
X150298800Y-89675000D01*
G75*
G02*
X150310000Y-89686200I0J-11200D01*
G01*
X150310000Y-90403800D01*
G75*
G02*
X150298800Y-90415000I-11200J0D01*
G01*
X150041200Y-90415000D01*
G75*
G02*
X150030000Y-90403800I0J11200D01*
G01*
X150030000Y-89686200D01*
G75*
G02*
X150041200Y-89675000I11200J0D01*
G01*
G37*
G36*
G01*
X150041200Y-87705000D02*
X150298800Y-87705000D01*
G75*
G02*
X150310000Y-87716200I0J-11200D01*
G01*
X150310000Y-88433800D01*
G75*
G02*
X150298800Y-88445000I-11200J0D01*
G01*
X150041200Y-88445000D01*
G75*
G02*
X150030000Y-88433800I0J11200D01*
G01*
X150030000Y-87716200D01*
G75*
G02*
X150041200Y-87705000I11200J0D01*
G01*
G37*
G36*
G01*
X149541200Y-87705000D02*
X149798800Y-87705000D01*
G75*
G02*
X149810000Y-87716200I0J-11200D01*
G01*
X149810000Y-88433800D01*
G75*
G02*
X149798800Y-88445000I-11200J0D01*
G01*
X149541200Y-88445000D01*
G75*
G02*
X149530000Y-88433800I0J11200D01*
G01*
X149530000Y-87716200D01*
G75*
G02*
X149541200Y-87705000I11200J0D01*
G01*
G37*
G36*
G01*
X149041200Y-87705000D02*
X149298800Y-87705000D01*
G75*
G02*
X149310000Y-87716200I0J-11200D01*
G01*
X149310000Y-88433800D01*
G75*
G02*
X149298800Y-88445000I-11200J0D01*
G01*
X149041200Y-88445000D01*
G75*
G02*
X149030000Y-88433800I0J11200D01*
G01*
X149030000Y-87716200D01*
G75*
G02*
X149041200Y-87705000I11200J0D01*
G01*
G37*
G36*
G01*
X148541200Y-87705000D02*
X148798800Y-87705000D01*
G75*
G02*
X148810000Y-87716200I0J-11200D01*
G01*
X148810000Y-88433800D01*
G75*
G02*
X148798800Y-88445000I-11200J0D01*
G01*
X148541200Y-88445000D01*
G75*
G02*
X148530000Y-88433800I0J11200D01*
G01*
X148530000Y-87716200D01*
G75*
G02*
X148541200Y-87705000I11200J0D01*
G01*
G37*
G04 #@! TD*
D15*
G04 #@! TO.C,MK2*
X148645500Y-97365000D03*
D14*
X149483000Y-99439000D03*
X149483000Y-98617000D03*
X147808000Y-98617000D03*
X147808000Y-99439000D03*
G04 #@! TD*
G04 #@! TO.C,L1*
G36*
G01*
X148412500Y-101426250D02*
X148412500Y-100663750D01*
G75*
G02*
X148631250Y-100445000I218750J0D01*
G01*
X149068750Y-100445000D01*
G75*
G02*
X149287500Y-100663750I0J-218750D01*
G01*
X149287500Y-101426250D01*
G75*
G02*
X149068750Y-101645000I-218750J0D01*
G01*
X148631250Y-101645000D01*
G75*
G02*
X148412500Y-101426250I0J218750D01*
G01*
G37*
G36*
G01*
X146287500Y-101426250D02*
X146287500Y-100663750D01*
G75*
G02*
X146506250Y-100445000I218750J0D01*
G01*
X146943750Y-100445000D01*
G75*
G02*
X147162500Y-100663750I0J-218750D01*
G01*
X147162500Y-101426250D01*
G75*
G02*
X146943750Y-101645000I-218750J0D01*
G01*
X146506250Y-101645000D01*
G75*
G02*
X146287500Y-101426250I0J218750D01*
G01*
G37*
G04 #@! TD*
G04 #@! TO.C,C12*
G36*
G01*
X157540000Y-87195000D02*
X157540000Y-86855000D01*
G75*
G02*
X157680000Y-86715000I140000J0D01*
G01*
X157960000Y-86715000D01*
G75*
G02*
X158100000Y-86855000I0J-140000D01*
G01*
X158100000Y-87195000D01*
G75*
G02*
X157960000Y-87335000I-140000J0D01*
G01*
X157680000Y-87335000D01*
G75*
G02*
X157540000Y-87195000I0J140000D01*
G01*
G37*
G36*
G01*
X156580000Y-87195000D02*
X156580000Y-86855000D01*
G75*
G02*
X156720000Y-86715000I140000J0D01*
G01*
X157000000Y-86715000D01*
G75*
G02*
X157140000Y-86855000I0J-140000D01*
G01*
X157140000Y-87195000D01*
G75*
G02*
X157000000Y-87335000I-140000J0D01*
G01*
X156720000Y-87335000D01*
G75*
G02*
X156580000Y-87195000I0J140000D01*
G01*
G37*
G04 #@! TD*
G04 #@! TO.C,C11*
G36*
G01*
X145090000Y-93225000D02*
X145090000Y-92885000D01*
G75*
G02*
X145230000Y-92745000I140000J0D01*
G01*
X145510000Y-92745000D01*
G75*
G02*
X145650000Y-92885000I0J-140000D01*
G01*
X145650000Y-93225000D01*
G75*
G02*
X145510000Y-93365000I-140000J0D01*
G01*
X145230000Y-93365000D01*
G75*
G02*
X145090000Y-93225000I0J140000D01*
G01*
G37*
G36*
G01*
X144130000Y-93225000D02*
X144130000Y-92885000D01*
G75*
G02*
X144270000Y-92745000I140000J0D01*
G01*
X144550000Y-92745000D01*
G75*
G02*
X144690000Y-92885000I0J-140000D01*
G01*
X144690000Y-93225000D01*
G75*
G02*
X144550000Y-93365000I-140000J0D01*
G01*
X144270000Y-93365000D01*
G75*
G02*
X144130000Y-93225000I0J140000D01*
G01*
G37*
G04 #@! TD*
D20*
G04 #@! TO.C,P3*
G36*
X161070000Y-89417893D02*
G01*
X161777107Y-90125000D01*
X161070000Y-90832107D01*
X160362893Y-90125000D01*
X161070000Y-89417893D01*
G37*
G36*
G01*
X160525527Y-88873421D02*
X160525527Y-88873421D01*
G75*
G02*
X160525527Y-89580527I-353553J-353553D01*
G01*
X160525527Y-89580527D01*
G75*
G02*
X159818421Y-89580527I-353553J353553D01*
G01*
X159818421Y-89580527D01*
G75*
G02*
X159818421Y-88873421I353553J353553D01*
G01*
X159818421Y-88873421D01*
G75*
G02*
X160525527Y-88873421I353553J-353553D01*
G01*
G37*
G04 #@! TD*
G04 #@! TO.C,P1*
G36*
G01*
X150980000Y-94270000D02*
X150430000Y-94270000D01*
G75*
G02*
X150280000Y-94120000I0J150000D01*
G01*
X150280000Y-93820000D01*
G75*
G02*
X150430000Y-93670000I150000J0D01*
G01*
X150980000Y-93670000D01*
G75*
G02*
X151130000Y-93820000I0J-150000D01*
G01*
X151130000Y-94120000D01*
G75*
G02*
X150980000Y-94270000I-150000J0D01*
G01*
G37*
G36*
G01*
X150980000Y-93070000D02*
X150430000Y-93070000D01*
G75*
G02*
X150280000Y-92920000I0J150000D01*
G01*
X150280000Y-92620000D01*
G75*
G02*
X150430000Y-92470000I150000J0D01*
G01*
X150980000Y-92470000D01*
G75*
G02*
X151130000Y-92620000I0J-150000D01*
G01*
X151130000Y-92920000D01*
G75*
G02*
X150980000Y-93070000I-150000J0D01*
G01*
G37*
G36*
G01*
X147155000Y-95470000D02*
X146705000Y-95470000D01*
G75*
G02*
X146530000Y-95295000I0J175000D01*
G01*
X146530000Y-94945000D01*
G75*
G02*
X146705000Y-94770000I175000J0D01*
G01*
X147155000Y-94770000D01*
G75*
G02*
X147330000Y-94945000I0J-175000D01*
G01*
X147330000Y-95295000D01*
G75*
G02*
X147155000Y-95470000I-175000J0D01*
G01*
G37*
G36*
G01*
X147155000Y-91970000D02*
X146705000Y-91970000D01*
G75*
G02*
X146530000Y-91795000I0J175000D01*
G01*
X146530000Y-91445000D01*
G75*
G02*
X146705000Y-91270000I175000J0D01*
G01*
X147155000Y-91270000D01*
G75*
G02*
X147330000Y-91445000I0J-175000D01*
G01*
X147330000Y-91795000D01*
G75*
G02*
X147155000Y-91970000I-175000J0D01*
G01*
G37*
G04 #@! TD*
D16*
G04 #@! TO.C,TP1*
X142840000Y-95865000D03*
G04 #@! TD*
D21*
G04 #@! TO.C,U3*
X153248300Y-90865001D03*
D22*
X153498300Y-89963301D03*
X152998300Y-89963301D03*
D23*
X152346600Y-90115000D03*
X152346600Y-90615001D03*
X152346600Y-91115001D03*
X152346600Y-91615002D03*
D22*
X152998300Y-91766701D03*
X153498300Y-91766701D03*
D23*
X154150000Y-91615002D03*
X154150000Y-91115001D03*
X154150000Y-90615001D03*
X154150000Y-90115000D03*
G04 #@! TD*
G04 #@! TO.C,C8*
G36*
G01*
X154050000Y-88435000D02*
X154050000Y-88775000D01*
G75*
G02*
X153910000Y-88915000I-140000J0D01*
G01*
X153630000Y-88915000D01*
G75*
G02*
X153490000Y-88775000I0J140000D01*
G01*
X153490000Y-88435000D01*
G75*
G02*
X153630000Y-88295000I140000J0D01*
G01*
X153910000Y-88295000D01*
G75*
G02*
X154050000Y-88435000I0J-140000D01*
G01*
G37*
G36*
G01*
X155010000Y-88435000D02*
X155010000Y-88775000D01*
G75*
G02*
X154870000Y-88915000I-140000J0D01*
G01*
X154590000Y-88915000D01*
G75*
G02*
X154450000Y-88775000I0J140000D01*
G01*
X154450000Y-88435000D01*
G75*
G02*
X154590000Y-88295000I140000J0D01*
G01*
X154870000Y-88295000D01*
G75*
G02*
X155010000Y-88435000I0J-140000D01*
G01*
G37*
G04 #@! TD*
G04 #@! TO.C,C3*
G36*
G01*
X152390000Y-88775000D02*
X152390000Y-88435000D01*
G75*
G02*
X152530000Y-88295000I140000J0D01*
G01*
X152810000Y-88295000D01*
G75*
G02*
X152950000Y-88435000I0J-140000D01*
G01*
X152950000Y-88775000D01*
G75*
G02*
X152810000Y-88915000I-140000J0D01*
G01*
X152530000Y-88915000D01*
G75*
G02*
X152390000Y-88775000I0J140000D01*
G01*
G37*
G36*
G01*
X151430000Y-88775000D02*
X151430000Y-88435000D01*
G75*
G02*
X151570000Y-88295000I140000J0D01*
G01*
X151850000Y-88295000D01*
G75*
G02*
X151990000Y-88435000I0J-140000D01*
G01*
X151990000Y-88775000D01*
G75*
G02*
X151850000Y-88915000I-140000J0D01*
G01*
X151570000Y-88915000D01*
G75*
G02*
X151430000Y-88775000I0J140000D01*
G01*
G37*
G04 #@! TD*
G04 #@! TO.C,P4*
G36*
G01*
X144728421Y-90204473D02*
X144728421Y-90204473D01*
G75*
G02*
X145435527Y-90204473I353553J-353553D01*
G01*
X145435527Y-90204473D01*
G75*
G02*
X145435527Y-90911579I-353553J-353553D01*
G01*
X145435527Y-90911579D01*
G75*
G02*
X144728421Y-90911579I-353553J353553D01*
G01*
X144728421Y-90911579D01*
G75*
G02*
X144728421Y-90204473I353553J353553D01*
G01*
G37*
D20*
G36*
X145272893Y-89660000D02*
G01*
X145980000Y-88952893D01*
X146687107Y-89660000D01*
X145980000Y-90367107D01*
X145272893Y-89660000D01*
G37*
G04 #@! TD*
D24*
G04 #@! TO.C,P2*
X152320000Y-86725000D03*
X154860000Y-86725000D03*
G04 #@! TD*
D16*
G04 #@! TO.C,TP9*
X143300000Y-101265000D03*
G04 #@! TD*
G04 #@! TO.C,TP5*
X163910000Y-95075000D03*
G04 #@! TD*
G04 #@! TO.C,TP4*
X163930000Y-97105000D03*
G04 #@! TD*
G04 #@! TO.C,TP3*
X163800000Y-99125000D03*
G04 #@! TD*
G04 #@! TO.C,R8*
G36*
G01*
X162250000Y-102330000D02*
X162250000Y-101960000D01*
G75*
G02*
X162385000Y-101825000I135000J0D01*
G01*
X162655000Y-101825000D01*
G75*
G02*
X162790000Y-101960000I0J-135000D01*
G01*
X162790000Y-102330000D01*
G75*
G02*
X162655000Y-102465000I-135000J0D01*
G01*
X162385000Y-102465000D01*
G75*
G02*
X162250000Y-102330000I0J135000D01*
G01*
G37*
G36*
G01*
X161230000Y-102330000D02*
X161230000Y-101960000D01*
G75*
G02*
X161365000Y-101825000I135000J0D01*
G01*
X161635000Y-101825000D01*
G75*
G02*
X161770000Y-101960000I0J-135000D01*
G01*
X161770000Y-102330000D01*
G75*
G02*
X161635000Y-102465000I-135000J0D01*
G01*
X161365000Y-102465000D01*
G75*
G02*
X161230000Y-102330000I0J135000D01*
G01*
G37*
G04 #@! TD*
G04 #@! TO.C,R3*
G36*
G01*
X150150000Y-103790000D02*
X150150000Y-103420000D01*
G75*
G02*
X150285000Y-103285000I135000J0D01*
G01*
X150555000Y-103285000D01*
G75*
G02*
X150690000Y-103420000I0J-135000D01*
G01*
X150690000Y-103790000D01*
G75*
G02*
X150555000Y-103925000I-135000J0D01*
G01*
X150285000Y-103925000D01*
G75*
G02*
X150150000Y-103790000I0J135000D01*
G01*
G37*
G36*
G01*
X149130000Y-103790000D02*
X149130000Y-103420000D01*
G75*
G02*
X149265000Y-103285000I135000J0D01*
G01*
X149535000Y-103285000D01*
G75*
G02*
X149670000Y-103420000I0J-135000D01*
G01*
X149670000Y-103790000D01*
G75*
G02*
X149535000Y-103925000I-135000J0D01*
G01*
X149265000Y-103925000D01*
G75*
G02*
X149130000Y-103790000I0J135000D01*
G01*
G37*
G04 #@! TD*
G04 #@! TO.C,R2*
G36*
G01*
X148200000Y-102760000D02*
X148200000Y-102390000D01*
G75*
G02*
X148335000Y-102255000I135000J0D01*
G01*
X148605000Y-102255000D01*
G75*
G02*
X148740000Y-102390000I0J-135000D01*
G01*
X148740000Y-102760000D01*
G75*
G02*
X148605000Y-102895000I-135000J0D01*
G01*
X148335000Y-102895000D01*
G75*
G02*
X148200000Y-102760000I0J135000D01*
G01*
G37*
G36*
G01*
X147180000Y-102760000D02*
X147180000Y-102390000D01*
G75*
G02*
X147315000Y-102255000I135000J0D01*
G01*
X147585000Y-102255000D01*
G75*
G02*
X147720000Y-102390000I0J-135000D01*
G01*
X147720000Y-102760000D01*
G75*
G02*
X147585000Y-102895000I-135000J0D01*
G01*
X147315000Y-102895000D01*
G75*
G02*
X147180000Y-102760000I0J135000D01*
G01*
G37*
G04 #@! TD*
G04 #@! TO.C,R1*
G36*
G01*
X148210001Y-103790000D02*
X148210001Y-103420000D01*
G75*
G02*
X148345001Y-103285000I135000J0D01*
G01*
X148615001Y-103285000D01*
G75*
G02*
X148750001Y-103420000I0J-135000D01*
G01*
X148750001Y-103790000D01*
G75*
G02*
X148615001Y-103925000I-135000J0D01*
G01*
X148345001Y-103925000D01*
G75*
G02*
X148210001Y-103790000I0J135000D01*
G01*
G37*
G36*
G01*
X147190001Y-103790000D02*
X147190001Y-103420000D01*
G75*
G02*
X147325001Y-103285000I135000J0D01*
G01*
X147595001Y-103285000D01*
G75*
G02*
X147730001Y-103420000I0J-135000D01*
G01*
X147730001Y-103790000D01*
G75*
G02*
X147595001Y-103925000I-135000J0D01*
G01*
X147325001Y-103925000D01*
G75*
G02*
X147190001Y-103790000I0J135000D01*
G01*
G37*
G04 #@! TD*
D25*
G04 #@! TO.C,S1*
X144250000Y-94530000D03*
X144250000Y-99610000D03*
X144250000Y-97070000D03*
G04 #@! TD*
G04 #@! TO.C,C1*
G36*
G01*
X147460000Y-88990000D02*
X147800000Y-88990000D01*
G75*
G02*
X147940000Y-89130000I0J-140000D01*
G01*
X147940000Y-89410000D01*
G75*
G02*
X147800000Y-89550000I-140000J0D01*
G01*
X147460000Y-89550000D01*
G75*
G02*
X147320000Y-89410000I0J140000D01*
G01*
X147320000Y-89130000D01*
G75*
G02*
X147460000Y-88990000I140000J0D01*
G01*
G37*
G36*
G01*
X147460000Y-89950000D02*
X147800000Y-89950000D01*
G75*
G02*
X147940000Y-90090000I0J-140000D01*
G01*
X147940000Y-90370000D01*
G75*
G02*
X147800000Y-90510000I-140000J0D01*
G01*
X147460000Y-90510000D01*
G75*
G02*
X147320000Y-90370000I0J140000D01*
G01*
X147320000Y-90090000D01*
G75*
G02*
X147460000Y-89950000I140000J0D01*
G01*
G37*
G04 #@! TD*
G04 #@! TO.C,C10*
G36*
G01*
X161250000Y-103325000D02*
X161250000Y-102985000D01*
G75*
G02*
X161390000Y-102845000I140000J0D01*
G01*
X161670000Y-102845000D01*
G75*
G02*
X161810000Y-102985000I0J-140000D01*
G01*
X161810000Y-103325000D01*
G75*
G02*
X161670000Y-103465000I-140000J0D01*
G01*
X161390000Y-103465000D01*
G75*
G02*
X161250000Y-103325000I0J140000D01*
G01*
G37*
G36*
G01*
X162210000Y-103325000D02*
X162210000Y-102985000D01*
G75*
G02*
X162350000Y-102845000I140000J0D01*
G01*
X162630000Y-102845000D01*
G75*
G02*
X162770000Y-102985000I0J-140000D01*
G01*
X162770000Y-103325000D01*
G75*
G02*
X162630000Y-103465000I-140000J0D01*
G01*
X162350000Y-103465000D01*
G75*
G02*
X162210000Y-103325000I0J140000D01*
G01*
G37*
G04 #@! TD*
G04 #@! TO.C,C2*
G36*
G01*
X156420000Y-89185000D02*
X156080000Y-89185000D01*
G75*
G02*
X155940000Y-89045000I0J140000D01*
G01*
X155940000Y-88765000D01*
G75*
G02*
X156080000Y-88625000I140000J0D01*
G01*
X156420000Y-88625000D01*
G75*
G02*
X156560000Y-88765000I0J-140000D01*
G01*
X156560000Y-89045000D01*
G75*
G02*
X156420000Y-89185000I-140000J0D01*
G01*
G37*
G36*
G01*
X156420000Y-90145000D02*
X156080000Y-90145000D01*
G75*
G02*
X155940000Y-90005000I0J140000D01*
G01*
X155940000Y-89725000D01*
G75*
G02*
X156080000Y-89585000I140000J0D01*
G01*
X156420000Y-89585000D01*
G75*
G02*
X156560000Y-89725000I0J-140000D01*
G01*
X156560000Y-90005000D01*
G75*
G02*
X156420000Y-90145000I-140000J0D01*
G01*
G37*
G04 #@! TD*
G04 #@! TO.C,C4*
G36*
G01*
X146670000Y-103095000D02*
X146670000Y-103595000D01*
G75*
G02*
X146445000Y-103820000I-225000J0D01*
G01*
X145995000Y-103820000D01*
G75*
G02*
X145770000Y-103595000I0J225000D01*
G01*
X145770000Y-103095000D01*
G75*
G02*
X145995000Y-102870000I225000J0D01*
G01*
X146445000Y-102870000D01*
G75*
G02*
X146670000Y-103095000I0J-225000D01*
G01*
G37*
G36*
G01*
X145120000Y-103095000D02*
X145120000Y-103595000D01*
G75*
G02*
X144895000Y-103820000I-225000J0D01*
G01*
X144445000Y-103820000D01*
G75*
G02*
X144220000Y-103595000I0J225000D01*
G01*
X144220000Y-103095000D01*
G75*
G02*
X144445000Y-102870000I225000J0D01*
G01*
X144895000Y-102870000D01*
G75*
G02*
X145120000Y-103095000I0J-225000D01*
G01*
G37*
G04 #@! TD*
G04 #@! TO.C,C7*
G36*
G01*
X145980000Y-98915000D02*
X146480000Y-98915000D01*
G75*
G02*
X146705000Y-99140000I0J-225000D01*
G01*
X146705000Y-99590000D01*
G75*
G02*
X146480000Y-99815000I-225000J0D01*
G01*
X145980000Y-99815000D01*
G75*
G02*
X145755000Y-99590000I0J225000D01*
G01*
X145755000Y-99140000D01*
G75*
G02*
X145980000Y-98915000I225000J0D01*
G01*
G37*
G36*
G01*
X145980000Y-97365000D02*
X146480000Y-97365000D01*
G75*
G02*
X146705000Y-97590000I0J-225000D01*
G01*
X146705000Y-98040000D01*
G75*
G02*
X146480000Y-98265000I-225000J0D01*
G01*
X145980000Y-98265000D01*
G75*
G02*
X145755000Y-98040000I0J225000D01*
G01*
X145755000Y-97590000D01*
G75*
G02*
X145980000Y-97365000I225000J0D01*
G01*
G37*
G04 #@! TD*
M02*
