G04 #@! TF.GenerationSoftware,KiCad,Pcbnew,5.1.12-84ad8e8a86~92~ubuntu20.04.1*
G04 #@! TF.CreationDate,2022-02-16T15:18:21-08:00*
G04 #@! TF.ProjectId,Zooids,5a6f6f69-6473-42e6-9b69-6361645f7063,rev?*
G04 #@! TF.SameCoordinates,Original*
G04 #@! TF.FileFunction,Legend,Top*
G04 #@! TF.FilePolarity,Positive*
%FSLAX46Y46*%
G04 Gerber Fmt 4.6, Leading zero omitted, Abs format (unit mm)*
G04 Created by KiCad (PCBNEW 5.1.12-84ad8e8a86~92~ubuntu20.04.1) date 2022-02-16 15:18:21*
%MOMM*%
%LPD*%
G01*
G04 APERTURE LIST*
%ADD10C,0.075000*%
%ADD11C,0.150000*%
%ADD12C,0.200000*%
%ADD13C,0.127000*%
%ADD14C,0.120000*%
%ADD15C,0.100000*%
%ADD16C,0.125000*%
G04 APERTURE END LIST*
D10*
X155133349Y-95011471D02*
X155402723Y-94742097D01*
X155372267Y-95007952D02*
X155399204Y-94981015D01*
X155439610Y-94967546D01*
X155466548Y-94967546D01*
X155506954Y-94981015D01*
X155574297Y-95021421D01*
X155641641Y-95088764D01*
X155682047Y-95156108D01*
X155695516Y-95196514D01*
X155695516Y-95223451D01*
X155682047Y-95263857D01*
X155655109Y-95290795D01*
X155614703Y-95304264D01*
X155587766Y-95304264D01*
X155547360Y-95290795D01*
X155480016Y-95250389D01*
X155412673Y-95183045D01*
X155372267Y-95115702D01*
X155358798Y-95075296D01*
X155358798Y-95048358D01*
X155372267Y-95007952D01*
X155601235Y-94832859D02*
X155601235Y-94805922D01*
X155614703Y-94765516D01*
X155682047Y-94698172D01*
X155722453Y-94684703D01*
X155749390Y-94684703D01*
X155789796Y-94698172D01*
X155816734Y-94725109D01*
X155843671Y-94778984D01*
X155843671Y-95102233D01*
X156018764Y-94927140D01*
X155991827Y-94388392D02*
X155857140Y-94523079D01*
X155978358Y-94671235D01*
X155978358Y-94644297D01*
X155991827Y-94603891D01*
X156059170Y-94536548D01*
X156099577Y-94523079D01*
X156126514Y-94523079D01*
X156166920Y-94536548D01*
X156234264Y-94603891D01*
X156247732Y-94644297D01*
X156247732Y-94671235D01*
X156234264Y-94711641D01*
X156166920Y-94778984D01*
X156126514Y-94792453D01*
X156099577Y-94792453D01*
X154023349Y-95011471D02*
X154292723Y-94742097D01*
X154262267Y-95007952D02*
X154289204Y-94981015D01*
X154329610Y-94967546D01*
X154356548Y-94967546D01*
X154396954Y-94981015D01*
X154464297Y-95021421D01*
X154531641Y-95088764D01*
X154572047Y-95156108D01*
X154585516Y-95196514D01*
X154585516Y-95223451D01*
X154572047Y-95263857D01*
X154545109Y-95290795D01*
X154504703Y-95304264D01*
X154477766Y-95304264D01*
X154437360Y-95290795D01*
X154370016Y-95250389D01*
X154302673Y-95183045D01*
X154262267Y-95115702D01*
X154248798Y-95075296D01*
X154248798Y-95048358D01*
X154262267Y-95007952D01*
X154531641Y-94738578D02*
X154558578Y-94711641D01*
X154598984Y-94698172D01*
X154625922Y-94698172D01*
X154666328Y-94711641D01*
X154733671Y-94752047D01*
X154801015Y-94819390D01*
X154841421Y-94886734D01*
X154854890Y-94927140D01*
X154854890Y-94954077D01*
X154841421Y-94994483D01*
X154814483Y-95021421D01*
X154774077Y-95034890D01*
X154747140Y-95034890D01*
X154706734Y-95021421D01*
X154639390Y-94981015D01*
X154572047Y-94913671D01*
X154531641Y-94846328D01*
X154518172Y-94805922D01*
X154518172Y-94778984D01*
X154531641Y-94738578D01*
X154720203Y-94550016D02*
X154895296Y-94374923D01*
X154908764Y-94576954D01*
X154949170Y-94536548D01*
X154989577Y-94523079D01*
X155016514Y-94523079D01*
X155056920Y-94536548D01*
X155124264Y-94603891D01*
X155137732Y-94644297D01*
X155137732Y-94671235D01*
X155124264Y-94711641D01*
X155043451Y-94792453D01*
X155003045Y-94805922D01*
X154976108Y-94805922D01*
X152973349Y-95021471D02*
X153242723Y-94752097D01*
X153212267Y-95017952D02*
X153239204Y-94991015D01*
X153279610Y-94977546D01*
X153306548Y-94977546D01*
X153346954Y-94991015D01*
X153414297Y-95031421D01*
X153481641Y-95098764D01*
X153522047Y-95166108D01*
X153535516Y-95206514D01*
X153535516Y-95233451D01*
X153522047Y-95273857D01*
X153495109Y-95300795D01*
X153454703Y-95314264D01*
X153427766Y-95314264D01*
X153387360Y-95300795D01*
X153320016Y-95260389D01*
X153252673Y-95193045D01*
X153212267Y-95125702D01*
X153198798Y-95085296D01*
X153198798Y-95058358D01*
X153212267Y-95017952D01*
X153481641Y-94748578D02*
X153508578Y-94721641D01*
X153548984Y-94708172D01*
X153575922Y-94708172D01*
X153616328Y-94721641D01*
X153683671Y-94762047D01*
X153751015Y-94829390D01*
X153791421Y-94896734D01*
X153804890Y-94937140D01*
X153804890Y-94964077D01*
X153791421Y-95004483D01*
X153764483Y-95031421D01*
X153724077Y-95044890D01*
X153697140Y-95044890D01*
X153656734Y-95031421D01*
X153589390Y-94991015D01*
X153522047Y-94923671D01*
X153481641Y-94856328D01*
X153468172Y-94815922D01*
X153468172Y-94788984D01*
X153481641Y-94748578D01*
X153710609Y-94573485D02*
X153710609Y-94546548D01*
X153724077Y-94506142D01*
X153791421Y-94438798D01*
X153831827Y-94425329D01*
X153858764Y-94425329D01*
X153899170Y-94438798D01*
X153926108Y-94465735D01*
X153953045Y-94519610D01*
X153953045Y-94842859D01*
X154128138Y-94667766D01*
X152023349Y-94971471D02*
X152292723Y-94702097D01*
X152262267Y-94967952D02*
X152289204Y-94941015D01*
X152329610Y-94927546D01*
X152356548Y-94927546D01*
X152396954Y-94941015D01*
X152464297Y-94981421D01*
X152531641Y-95048764D01*
X152572047Y-95116108D01*
X152585516Y-95156514D01*
X152585516Y-95183451D01*
X152572047Y-95223857D01*
X152545109Y-95250795D01*
X152504703Y-95264264D01*
X152477766Y-95264264D01*
X152437360Y-95250795D01*
X152370016Y-95210389D01*
X152302673Y-95143045D01*
X152262267Y-95075702D01*
X152248798Y-95035296D01*
X152248798Y-95008358D01*
X152262267Y-94967952D01*
X152450829Y-94779390D02*
X152625922Y-94604297D01*
X152639390Y-94806328D01*
X152679796Y-94765922D01*
X152720203Y-94752453D01*
X152747140Y-94752453D01*
X152787546Y-94765922D01*
X152854890Y-94833265D01*
X152868358Y-94873671D01*
X152868358Y-94900609D01*
X152854890Y-94941015D01*
X152774077Y-95021827D01*
X152733671Y-95035296D01*
X152706734Y-95035296D01*
X153178138Y-94617766D02*
X153016514Y-94779390D01*
X153097326Y-94698578D02*
X152814483Y-94415735D01*
X152827952Y-94483079D01*
X152827952Y-94536954D01*
X152814483Y-94577360D01*
X150993349Y-95051471D02*
X151262723Y-94782097D01*
X151232267Y-95047952D02*
X151259204Y-95021015D01*
X151299610Y-95007546D01*
X151326548Y-95007546D01*
X151366954Y-95021015D01*
X151434297Y-95061421D01*
X151501641Y-95128764D01*
X151542047Y-95196108D01*
X151555516Y-95236514D01*
X151555516Y-95263451D01*
X151542047Y-95303857D01*
X151515109Y-95330795D01*
X151474703Y-95344264D01*
X151447766Y-95344264D01*
X151407360Y-95330795D01*
X151340016Y-95290389D01*
X151272673Y-95223045D01*
X151232267Y-95155702D01*
X151218798Y-95115296D01*
X151218798Y-95088358D01*
X151232267Y-95047952D01*
X151420829Y-94859390D02*
X151595922Y-94684297D01*
X151609390Y-94886328D01*
X151649796Y-94845922D01*
X151690203Y-94832453D01*
X151717140Y-94832453D01*
X151757546Y-94845922D01*
X151824890Y-94913265D01*
X151838358Y-94953671D01*
X151838358Y-94980609D01*
X151824890Y-95021015D01*
X151744077Y-95101827D01*
X151703671Y-95115296D01*
X151676734Y-95115296D01*
X151771015Y-94509204D02*
X151797952Y-94482267D01*
X151838358Y-94468798D01*
X151865296Y-94468798D01*
X151905702Y-94482267D01*
X151973045Y-94522673D01*
X152040389Y-94590016D01*
X152080795Y-94657360D01*
X152094264Y-94697766D01*
X152094264Y-94724703D01*
X152080795Y-94765109D01*
X152053857Y-94792047D01*
X152013451Y-94805516D01*
X151986514Y-94805516D01*
X151946108Y-94792047D01*
X151878764Y-94751641D01*
X151811421Y-94684297D01*
X151771015Y-94616954D01*
X151757546Y-94576548D01*
X151757546Y-94549610D01*
X151771015Y-94509204D01*
X149913349Y-95081471D02*
X150182723Y-94812097D01*
X150152267Y-95077952D02*
X150179204Y-95051015D01*
X150219610Y-95037546D01*
X150246548Y-95037546D01*
X150286954Y-95051015D01*
X150354297Y-95091421D01*
X150421641Y-95158764D01*
X150462047Y-95226108D01*
X150475516Y-95266514D01*
X150475516Y-95293451D01*
X150462047Y-95333857D01*
X150435109Y-95360795D01*
X150394703Y-95374264D01*
X150367766Y-95374264D01*
X150327360Y-95360795D01*
X150260016Y-95320389D01*
X150192673Y-95253045D01*
X150152267Y-95185702D01*
X150138798Y-95145296D01*
X150138798Y-95118358D01*
X150152267Y-95077952D01*
X150381235Y-94902859D02*
X150381235Y-94875922D01*
X150394703Y-94835516D01*
X150462047Y-94768172D01*
X150502453Y-94754703D01*
X150529390Y-94754703D01*
X150569796Y-94768172D01*
X150596734Y-94795109D01*
X150623671Y-94848984D01*
X150623671Y-95172233D01*
X150798764Y-94997140D01*
X150933451Y-94862453D02*
X150987326Y-94808578D01*
X151000795Y-94768172D01*
X151000795Y-94741235D01*
X150987326Y-94673891D01*
X150946920Y-94606548D01*
X150839170Y-94498798D01*
X150798764Y-94485329D01*
X150771827Y-94485329D01*
X150731421Y-94498798D01*
X150677546Y-94552673D01*
X150664077Y-94593079D01*
X150664077Y-94620016D01*
X150677546Y-94660422D01*
X150744890Y-94727766D01*
X150785296Y-94741235D01*
X150812233Y-94741235D01*
X150852639Y-94727766D01*
X150906514Y-94673891D01*
X150919983Y-94633485D01*
X150919983Y-94606548D01*
X150906514Y-94566142D01*
X155717580Y-88052639D02*
X155892673Y-87877546D01*
X155906142Y-88079577D01*
X155946548Y-88039170D01*
X155986954Y-88025702D01*
X156013891Y-88025702D01*
X156054297Y-88039170D01*
X156121641Y-88106514D01*
X156135109Y-88146920D01*
X156135109Y-88173857D01*
X156121641Y-88214264D01*
X156040829Y-88295076D01*
X156000422Y-88308544D01*
X155973485Y-88308544D01*
X156269796Y-88012233D02*
X156296734Y-88012233D01*
X156296734Y-88039170D01*
X156269796Y-88039170D01*
X156269796Y-88012233D01*
X156296734Y-88039170D01*
X156121641Y-87648578D02*
X156296734Y-87473485D01*
X156310203Y-87675516D01*
X156350609Y-87635109D01*
X156391015Y-87621641D01*
X156417952Y-87621641D01*
X156458358Y-87635109D01*
X156525702Y-87702453D01*
X156539170Y-87742859D01*
X156539170Y-87769796D01*
X156525702Y-87810203D01*
X156444890Y-87891015D01*
X156404483Y-87904483D01*
X156377546Y-87904483D01*
X156377546Y-87392673D02*
X156754670Y-87581235D01*
X156566108Y-87204111D01*
X154543552Y-87991268D02*
X154826395Y-87708425D01*
X155173062Y-88162842D02*
X154944094Y-88122436D01*
X155011438Y-88324467D02*
X154728595Y-88041624D01*
X154836345Y-87933874D01*
X154876751Y-87920406D01*
X154903688Y-87920406D01*
X154944094Y-87933874D01*
X154984500Y-87974280D01*
X154997969Y-88014687D01*
X154997969Y-88041624D01*
X154984500Y-88082030D01*
X154876751Y-88189780D01*
X154826395Y-87708425D02*
X155095769Y-87439051D01*
X155267343Y-88041624D02*
X155321218Y-88014687D01*
X155388561Y-87947343D01*
X155402030Y-87906937D01*
X155402030Y-87879999D01*
X155388561Y-87839593D01*
X155361624Y-87812656D01*
X155321218Y-87799187D01*
X155294280Y-87799187D01*
X155253874Y-87812656D01*
X155186531Y-87853062D01*
X155146125Y-87866531D01*
X155119187Y-87866531D01*
X155078781Y-87853062D01*
X155051844Y-87826125D01*
X155038375Y-87785719D01*
X155038375Y-87758781D01*
X155051844Y-87718375D01*
X155119187Y-87651032D01*
X155173062Y-87624094D01*
X155095769Y-87439051D02*
X155311268Y-87223552D01*
X155240406Y-87529813D02*
X155402030Y-87368189D01*
X155604061Y-87731844D02*
X155321218Y-87449001D01*
X153496411Y-88028408D02*
X153779254Y-87745566D01*
X153843079Y-87944077D02*
X153802673Y-87957546D01*
X153762267Y-87997952D01*
X153735329Y-88051827D01*
X153735329Y-88105702D01*
X153748798Y-88146108D01*
X153789204Y-88213451D01*
X153829610Y-88253857D01*
X153896954Y-88294264D01*
X153937360Y-88307732D01*
X153991235Y-88307732D01*
X154045109Y-88280795D01*
X154072047Y-88253857D01*
X154098984Y-88199983D01*
X154098984Y-88173045D01*
X154004703Y-88078764D01*
X153950829Y-88132639D01*
X154247140Y-88078764D02*
X153964297Y-87795922D01*
X154408764Y-87917140D01*
X154125922Y-87634297D01*
X154543451Y-87782453D02*
X154260609Y-87499610D01*
X154327952Y-87432267D01*
X154381827Y-87405329D01*
X154435702Y-87405329D01*
X154476108Y-87418798D01*
X154543451Y-87459204D01*
X154583857Y-87499610D01*
X154624264Y-87566954D01*
X154637732Y-87607360D01*
X154637732Y-87661235D01*
X154610795Y-87715109D01*
X154543451Y-87782453D01*
X150513349Y-87971471D02*
X150782723Y-87702097D01*
X150752267Y-87967952D02*
X150779204Y-87941015D01*
X150819610Y-87927546D01*
X150846548Y-87927546D01*
X150886954Y-87941015D01*
X150954297Y-87981421D01*
X151021641Y-88048764D01*
X151062047Y-88116108D01*
X151075516Y-88156514D01*
X151075516Y-88183451D01*
X151062047Y-88223857D01*
X151035109Y-88250795D01*
X150994703Y-88264264D01*
X150967766Y-88264264D01*
X150927360Y-88250795D01*
X150860016Y-88210389D01*
X150792673Y-88143045D01*
X150752267Y-88075702D01*
X150738798Y-88035296D01*
X150738798Y-88008358D01*
X150752267Y-87967952D01*
X151021641Y-87698578D02*
X151048578Y-87671641D01*
X151088984Y-87658172D01*
X151115922Y-87658172D01*
X151156328Y-87671641D01*
X151223671Y-87712047D01*
X151291015Y-87779390D01*
X151331421Y-87846734D01*
X151344890Y-87887140D01*
X151344890Y-87914077D01*
X151331421Y-87954483D01*
X151304483Y-87981421D01*
X151264077Y-87994890D01*
X151237140Y-87994890D01*
X151196734Y-87981421D01*
X151129390Y-87941015D01*
X151062047Y-87873671D01*
X151021641Y-87806328D01*
X151008172Y-87765922D01*
X151008172Y-87738984D01*
X151021641Y-87698578D01*
X151533451Y-87752453D02*
X151587326Y-87698578D01*
X151600795Y-87658172D01*
X151600795Y-87631235D01*
X151587326Y-87563891D01*
X151546920Y-87496548D01*
X151439170Y-87388798D01*
X151398764Y-87375329D01*
X151371827Y-87375329D01*
X151331421Y-87388798D01*
X151277546Y-87442673D01*
X151264077Y-87483079D01*
X151264077Y-87510016D01*
X151277546Y-87550422D01*
X151344890Y-87617766D01*
X151385296Y-87631235D01*
X151412233Y-87631235D01*
X151452639Y-87617766D01*
X151506514Y-87563891D01*
X151519983Y-87523485D01*
X151519983Y-87496548D01*
X151506514Y-87456142D01*
X151533349Y-87961471D02*
X151802723Y-87692097D01*
X151772267Y-87957952D02*
X151799204Y-87931015D01*
X151839610Y-87917546D01*
X151866548Y-87917546D01*
X151906954Y-87931015D01*
X151974297Y-87971421D01*
X152041641Y-88038764D01*
X152082047Y-88106108D01*
X152095516Y-88146514D01*
X152095516Y-88173451D01*
X152082047Y-88213857D01*
X152055109Y-88240795D01*
X152014703Y-88254264D01*
X151987766Y-88254264D01*
X151947360Y-88240795D01*
X151880016Y-88200389D01*
X151812673Y-88133045D01*
X151772267Y-88065702D01*
X151758798Y-88025296D01*
X151758798Y-87998358D01*
X151772267Y-87957952D01*
X152418764Y-87877140D02*
X152257140Y-88038764D01*
X152337952Y-87957952D02*
X152055109Y-87675109D01*
X152068578Y-87742453D01*
X152068578Y-87796328D01*
X152055109Y-87836734D01*
X152311015Y-87419204D02*
X152337952Y-87392267D01*
X152378358Y-87378798D01*
X152405296Y-87378798D01*
X152445702Y-87392267D01*
X152513045Y-87432673D01*
X152580389Y-87500016D01*
X152620795Y-87567360D01*
X152634264Y-87607766D01*
X152634264Y-87634703D01*
X152620795Y-87675109D01*
X152593857Y-87702047D01*
X152553451Y-87715516D01*
X152526514Y-87715516D01*
X152486108Y-87702047D01*
X152418764Y-87661641D01*
X152351421Y-87594297D01*
X152311015Y-87526954D01*
X152297546Y-87486548D01*
X152297546Y-87459610D01*
X152311015Y-87419204D01*
X152513349Y-87981471D02*
X152782723Y-87712097D01*
X152752267Y-87977952D02*
X152779204Y-87951015D01*
X152819610Y-87937546D01*
X152846548Y-87937546D01*
X152886954Y-87951015D01*
X152954297Y-87991421D01*
X153021641Y-88058764D01*
X153062047Y-88126108D01*
X153075516Y-88166514D01*
X153075516Y-88193451D01*
X153062047Y-88233857D01*
X153035109Y-88260795D01*
X152994703Y-88274264D01*
X152967766Y-88274264D01*
X152927360Y-88260795D01*
X152860016Y-88220389D01*
X152792673Y-88153045D01*
X152752267Y-88085702D01*
X152738798Y-88045296D01*
X152738798Y-88018358D01*
X152752267Y-87977952D01*
X152981235Y-87802859D02*
X152981235Y-87775922D01*
X152994703Y-87735516D01*
X153062047Y-87668172D01*
X153102453Y-87654703D01*
X153129390Y-87654703D01*
X153169796Y-87668172D01*
X153196734Y-87695109D01*
X153223671Y-87748984D01*
X153223671Y-88072233D01*
X153398764Y-87897140D01*
X153358358Y-87371861D02*
X153304483Y-87425735D01*
X153291015Y-87466142D01*
X153291015Y-87493079D01*
X153304483Y-87560422D01*
X153344890Y-87627766D01*
X153452639Y-87735516D01*
X153493045Y-87748984D01*
X153519983Y-87748984D01*
X153560389Y-87735516D01*
X153614264Y-87681641D01*
X153627732Y-87641235D01*
X153627732Y-87614297D01*
X153614264Y-87573891D01*
X153546920Y-87506548D01*
X153506514Y-87493079D01*
X153479577Y-87493079D01*
X153439170Y-87506548D01*
X153385296Y-87560422D01*
X153371827Y-87600829D01*
X153371827Y-87627766D01*
X153385296Y-87668172D01*
D11*
X149909047Y-89511428D02*
X150670952Y-89511428D01*
X150290000Y-89892380D02*
X150290000Y-89130476D01*
X155989047Y-98721428D02*
X156750952Y-98721428D01*
X156370000Y-99102380D02*
X156370000Y-98340476D01*
D12*
G04 #@! TO.C,J1*
X159500000Y-98505000D02*
G75*
G03*
X159500000Y-98505000I-100000J0D01*
G01*
D13*
X164950000Y-100855000D02*
X164950000Y-93455000D01*
X164680000Y-93455000D02*
X164950000Y-93455000D01*
X164950000Y-100855000D02*
X164680000Y-100855000D01*
X160650000Y-93455000D02*
X160650000Y-93635000D01*
X160650000Y-100855000D02*
X160650000Y-100675000D01*
X160650000Y-93455000D02*
X162405000Y-93455000D01*
X160650000Y-100855000D02*
X162405000Y-100855000D01*
D14*
G04 #@! TO.C,U7*
X157250000Y-93235000D02*
X157250000Y-93235000D01*
X157750000Y-93235000D02*
X157250000Y-93235000D01*
X157250000Y-94935000D02*
X157250000Y-94935000D01*
X157250000Y-95435000D02*
X157250000Y-94935000D01*
X157750000Y-95435000D02*
X157250000Y-95435000D01*
X158950000Y-95435000D02*
X158950000Y-95435000D01*
X159450000Y-95435000D02*
X158950000Y-95435000D01*
X159450000Y-94935000D02*
X159450000Y-95435000D01*
X159450000Y-93735000D02*
X159450000Y-93735000D01*
X159450000Y-93235000D02*
X159450000Y-93735000D01*
X158950000Y-93235000D02*
X159450000Y-93235000D01*
D12*
G04 #@! TO.C,J2*
X156730000Y-90115000D02*
X156730000Y-93295000D01*
X150470000Y-90115000D02*
X150470000Y-93295000D01*
X156200000Y-87960000D02*
G75*
G03*
X156200000Y-87960000I-100000J0D01*
G01*
D15*
G04 #@! TO.C,U8*
G36*
X158337700Y-101251000D02*
G01*
X158337700Y-101632000D01*
X158083700Y-101632000D01*
X158083700Y-101251000D01*
X158337700Y-101251000D01*
G37*
X158337700Y-101251000D02*
X158337700Y-101632000D01*
X158083700Y-101632000D01*
X158083700Y-101251000D01*
X158337700Y-101251000D01*
G36*
X156289500Y-108245200D02*
G01*
X156289500Y-108499200D01*
X156670500Y-108499200D01*
X156670500Y-108245200D01*
X156289500Y-108245200D01*
G37*
X156289500Y-108245200D02*
X156289500Y-108499200D01*
X156670500Y-108499200D01*
X156670500Y-108245200D01*
X156289500Y-108245200D01*
G36*
X149422300Y-106451000D02*
G01*
X149422300Y-106832000D01*
X149676300Y-106832000D01*
X149676300Y-106451000D01*
X149422300Y-106451000D01*
G37*
X149422300Y-106451000D02*
X149422300Y-106832000D01*
X149676300Y-106832000D01*
X149676300Y-106451000D01*
X149422300Y-106451000D01*
D13*
G04 #@! TO.C,SP1*
X151630000Y-95390000D02*
X151630000Y-95890000D01*
X155630000Y-95390000D02*
X155630000Y-95890000D01*
X155630000Y-98890000D02*
X155630000Y-99390000D01*
X151630000Y-98890000D02*
X151630000Y-99390000D01*
X151630000Y-95390000D02*
X155630000Y-95390000D01*
X155630000Y-99390000D02*
X151630000Y-99390000D01*
D12*
G04 #@! TO.C,U1*
X148480000Y-102810000D02*
X148480000Y-102610000D01*
X146880000Y-102810000D02*
X146880000Y-102610000D01*
D15*
X148080000Y-104310000D02*
X148080000Y-104310000D01*
X148180000Y-104310000D02*
X148180000Y-104310000D01*
X148080000Y-104310000D02*
G75*
G02*
X148180000Y-104310000I50000J0D01*
G01*
X148180000Y-104310000D02*
G75*
G02*
X148080000Y-104310000I-50000J0D01*
G01*
D14*
G04 #@! TO.C,TP10*
X149370000Y-93585000D02*
G75*
G03*
X149370000Y-93585000I-700000J0D01*
G01*
G04 #@! TO.C,TP7*
X147780000Y-97335000D02*
G75*
G03*
X147780000Y-97335000I-700000J0D01*
G01*
G04 #@! TO.C,TP2*
X148960000Y-99455000D02*
G75*
G03*
X148960000Y-99455000I-700000J0D01*
G01*
G04 #@! TO.C,R11*
X159056359Y-103865000D02*
X159363641Y-103865000D01*
X159056359Y-103105000D02*
X159363641Y-103105000D01*
G04 #@! TO.C,R10*
X160360000Y-102871358D02*
X160360000Y-103178640D01*
X161120000Y-102871358D02*
X161120000Y-103178640D01*
G04 #@! TO.C,R9*
X163330000Y-103158641D02*
X163330000Y-102851359D01*
X162570000Y-103158641D02*
X162570000Y-102851359D01*
G04 #@! TO.C,R6*
X161470000Y-102631359D02*
X161470000Y-102938641D01*
X162230000Y-102631359D02*
X162230000Y-102938641D01*
G04 #@! TO.C,TP6*
X163590000Y-91725000D02*
G75*
G03*
X163590000Y-91725000I-700000J0D01*
G01*
G04 #@! TO.C,C14*
X158970000Y-92142836D02*
X158970000Y-91927164D01*
X159690000Y-92142836D02*
X159690000Y-91927164D01*
G04 #@! TO.C,R7*
X161013640Y-92685000D02*
X160706358Y-92685000D01*
X161013640Y-91925000D02*
X160706358Y-91925000D01*
G04 #@! TO.C,R5*
X158023641Y-91245000D02*
X157716359Y-91245000D01*
X158023641Y-90485000D02*
X157716359Y-90485000D01*
G04 #@! TO.C,P3*
X162392290Y-89877513D02*
X161607401Y-90662401D01*
X161854889Y-89340111D02*
X162392290Y-89877513D01*
X160134165Y-89986033D02*
X159747710Y-90372487D01*
X161317487Y-88802710D02*
X160931033Y-89189165D01*
X159747710Y-90372487D02*
X158895647Y-89520424D01*
X161317487Y-88802710D02*
X160465424Y-87950647D01*
X159463079Y-88952992D02*
X158895647Y-89520424D01*
X160465424Y-87950647D02*
X159897992Y-88518079D01*
G04 #@! TO.C,P4*
X143805647Y-90264576D02*
X144373079Y-90832008D01*
X144807992Y-91266921D02*
X145375424Y-91834353D01*
X144657710Y-89412513D02*
X143805647Y-90264576D01*
X146227487Y-90982290D02*
X145375424Y-91834353D01*
X144657710Y-89412513D02*
X145044165Y-89798967D01*
X145841033Y-90595835D02*
X146227487Y-90982290D01*
X145195111Y-88875111D02*
X145732513Y-88337710D01*
X145732513Y-88337710D02*
X146517401Y-89122599D01*
D11*
G04 #@! TO.C,P2*
X151290000Y-86325000D02*
X151790000Y-85825000D01*
X151290000Y-87125000D02*
X151290000Y-86325000D01*
X151790000Y-87625000D02*
X151290000Y-87125000D01*
X155390000Y-87625000D02*
X151790000Y-87625000D01*
X155890000Y-87125000D02*
X155390000Y-87625000D01*
X155890000Y-86325000D02*
X155890000Y-87125000D01*
X155390000Y-85825000D02*
X155890000Y-86325000D01*
X151790000Y-85825000D02*
X155390000Y-85825000D01*
D15*
G04 #@! TO.C,S1*
X143850000Y-100610000D02*
X143850000Y-101280000D01*
X143850000Y-101280000D02*
X137450000Y-101280000D01*
X137450000Y-101280000D02*
X137450000Y-92860000D01*
X137450000Y-92860000D02*
X143850000Y-92860000D01*
X143850000Y-92860000D02*
X143850000Y-93610000D01*
X145250000Y-97070000D02*
X145250000Y-97070000D01*
X145350000Y-97070000D02*
X145350000Y-97070000D01*
X145250000Y-97070000D02*
G75*
G02*
X145350000Y-97070000I50000J0D01*
G01*
X145350000Y-97070000D02*
G75*
G02*
X145250000Y-97070000I-50000J0D01*
G01*
D14*
G04 #@! TO.C,C5*
X146150000Y-94550580D02*
X146150000Y-94269420D01*
X147170000Y-94550580D02*
X147170000Y-94269420D01*
G04 #@! TO.C,J1*
D11*
X160921859Y-102238651D02*
X161636825Y-102238651D01*
X161779818Y-102286315D01*
X161875147Y-102381644D01*
X161922812Y-102524637D01*
X161922812Y-102619966D01*
X161922812Y-101237698D02*
X161922812Y-101809671D01*
X161922812Y-101523684D02*
X160921859Y-101523684D01*
X161064852Y-101619013D01*
X161160181Y-101714342D01*
X161207845Y-101809671D01*
G04 #@! TO.C,U7*
X157588095Y-91937380D02*
X157588095Y-92746904D01*
X157635714Y-92842142D01*
X157683333Y-92889761D01*
X157778571Y-92937380D01*
X157969047Y-92937380D01*
X158064285Y-92889761D01*
X158111904Y-92842142D01*
X158159523Y-92746904D01*
X158159523Y-91937380D01*
X158540476Y-91937380D02*
X159207142Y-91937380D01*
X158778571Y-92937380D01*
G04 #@! TO.C,J2*
X154091666Y-95792380D02*
X154091666Y-96506666D01*
X154044047Y-96649523D01*
X153948809Y-96744761D01*
X153805952Y-96792380D01*
X153710714Y-96792380D01*
X154520238Y-95887619D02*
X154567857Y-95840000D01*
X154663095Y-95792380D01*
X154901190Y-95792380D01*
X154996428Y-95840000D01*
X155044047Y-95887619D01*
X155091666Y-95982857D01*
X155091666Y-96078095D01*
X155044047Y-96220952D01*
X154472619Y-96792380D01*
X155091666Y-96792380D01*
G04 #@! TO.C,U8*
X153078095Y-104272380D02*
X153078095Y-105081904D01*
X153125714Y-105177142D01*
X153173333Y-105224761D01*
X153268571Y-105272380D01*
X153459047Y-105272380D01*
X153554285Y-105224761D01*
X153601904Y-105177142D01*
X153649523Y-105081904D01*
X153649523Y-104272380D01*
X154268571Y-104700952D02*
X154173333Y-104653333D01*
X154125714Y-104605714D01*
X154078095Y-104510476D01*
X154078095Y-104462857D01*
X154125714Y-104367619D01*
X154173333Y-104320000D01*
X154268571Y-104272380D01*
X154459047Y-104272380D01*
X154554285Y-104320000D01*
X154601904Y-104367619D01*
X154649523Y-104462857D01*
X154649523Y-104510476D01*
X154601904Y-104605714D01*
X154554285Y-104653333D01*
X154459047Y-104700952D01*
X154268571Y-104700952D01*
X154173333Y-104748571D01*
X154125714Y-104796190D01*
X154078095Y-104891428D01*
X154078095Y-105081904D01*
X154125714Y-105177142D01*
X154173333Y-105224761D01*
X154268571Y-105272380D01*
X154459047Y-105272380D01*
X154554285Y-105224761D01*
X154601904Y-105177142D01*
X154649523Y-105081904D01*
X154649523Y-104891428D01*
X154601904Y-104796190D01*
X154554285Y-104748571D01*
X154459047Y-104700952D01*
X147670000Y-106878380D02*
X147670000Y-105878380D01*
X148098571Y-106830761D02*
X148241428Y-106878380D01*
X148479523Y-106878380D01*
X148574761Y-106830761D01*
X148622380Y-106783142D01*
X148670000Y-106687904D01*
X148670000Y-106592666D01*
X148622380Y-106497428D01*
X148574761Y-106449809D01*
X148479523Y-106402190D01*
X148289047Y-106354571D01*
X148193809Y-106306952D01*
X148146190Y-106259333D01*
X148098571Y-106164095D01*
X148098571Y-106068857D01*
X148146190Y-105973619D01*
X148193809Y-105926000D01*
X148289047Y-105878380D01*
X148527142Y-105878380D01*
X148670000Y-105926000D01*
X149098571Y-106878380D02*
X149098571Y-105878380D01*
X149479523Y-105878380D01*
X149574761Y-105926000D01*
X149622380Y-105973619D01*
X149670000Y-106068857D01*
X149670000Y-106211714D01*
X149622380Y-106306952D01*
X149574761Y-106354571D01*
X149479523Y-106402190D01*
X149098571Y-106402190D01*
X150622380Y-106878380D02*
X150050952Y-106878380D01*
X150336666Y-106878380D02*
X150336666Y-105878380D01*
X150241428Y-106021238D01*
X150146190Y-106116476D01*
X150050952Y-106164095D01*
X151193809Y-106306952D02*
X151098571Y-106259333D01*
X151050952Y-106211714D01*
X151003333Y-106116476D01*
X151003333Y-106068857D01*
X151050952Y-105973619D01*
X151098571Y-105926000D01*
X151193809Y-105878380D01*
X151384285Y-105878380D01*
X151479523Y-105926000D01*
X151527142Y-105973619D01*
X151574761Y-106068857D01*
X151574761Y-106116476D01*
X151527142Y-106211714D01*
X151479523Y-106259333D01*
X151384285Y-106306952D01*
X151193809Y-106306952D01*
X151098571Y-106354571D01*
X151050952Y-106402190D01*
X151003333Y-106497428D01*
X151003333Y-106687904D01*
X151050952Y-106783142D01*
X151098571Y-106830761D01*
X151193809Y-106878380D01*
X151384285Y-106878380D01*
X151479523Y-106830761D01*
X151527142Y-106783142D01*
X151574761Y-106687904D01*
X151574761Y-106497428D01*
X151527142Y-106402190D01*
X151479523Y-106354571D01*
X151384285Y-106306952D01*
X152193809Y-105878380D02*
X152289047Y-105878380D01*
X152384285Y-105926000D01*
X152431904Y-105973619D01*
X152479523Y-106068857D01*
X152527142Y-106259333D01*
X152527142Y-106497428D01*
X152479523Y-106687904D01*
X152431904Y-106783142D01*
X152384285Y-106830761D01*
X152289047Y-106878380D01*
X152193809Y-106878380D01*
X152098571Y-106830761D01*
X152050952Y-106783142D01*
X152003333Y-106687904D01*
X151955714Y-106497428D01*
X151955714Y-106259333D01*
X152003333Y-106068857D01*
X152050952Y-105973619D01*
X152098571Y-105926000D01*
X152193809Y-105878380D01*
X152860476Y-105878380D02*
X153527142Y-105878380D01*
X153098571Y-106878380D01*
X153908095Y-106497428D02*
X154670000Y-106497428D01*
X155622380Y-106878380D02*
X155146190Y-106878380D01*
X155146190Y-105878380D01*
X156527142Y-106878380D02*
X156193809Y-106402190D01*
X155955714Y-106878380D02*
X155955714Y-105878380D01*
X156336666Y-105878380D01*
X156431904Y-105926000D01*
X156479523Y-105973619D01*
X156527142Y-106068857D01*
X156527142Y-106211714D01*
X156479523Y-106306952D01*
X156431904Y-106354571D01*
X156336666Y-106402190D01*
X155955714Y-106402190D01*
X156955714Y-106497428D02*
X157717619Y-106497428D01*
X158765238Y-106878380D02*
X158431904Y-106402190D01*
X158193809Y-106878380D02*
X158193809Y-105878380D01*
X158574761Y-105878380D01*
X158670000Y-105926000D01*
X158717619Y-105973619D01*
X158765238Y-106068857D01*
X158765238Y-106211714D01*
X158717619Y-106306952D01*
X158670000Y-106354571D01*
X158574761Y-106402190D01*
X158193809Y-106402190D01*
X159146190Y-106830761D02*
X159289047Y-106878380D01*
X159527142Y-106878380D01*
X159622380Y-106830761D01*
X159670000Y-106783142D01*
X159717619Y-106687904D01*
X159717619Y-106592666D01*
X159670000Y-106497428D01*
X159622380Y-106449809D01*
X159527142Y-106402190D01*
X159336666Y-106354571D01*
X159241428Y-106306952D01*
X159193809Y-106259333D01*
X159146190Y-106164095D01*
X159146190Y-106068857D01*
X159193809Y-105973619D01*
X159241428Y-105926000D01*
X159336666Y-105878380D01*
X159574761Y-105878380D01*
X159717619Y-105926000D01*
X150210000Y-99182380D02*
X150210000Y-99420476D01*
X149971904Y-99325238D02*
X150210000Y-99420476D01*
X150448095Y-99325238D01*
X150067142Y-99610952D02*
X150210000Y-99420476D01*
X150352857Y-99610952D01*
X152690000Y-104122380D02*
X152690000Y-104360476D01*
X152451904Y-104265238D02*
X152690000Y-104360476D01*
X152928095Y-104265238D01*
X152547142Y-104550952D02*
X152690000Y-104360476D01*
X152832857Y-104550952D01*
G04 #@! TO.C,SP1*
D10*
X155999047Y-99652380D02*
X156070476Y-99676190D01*
X156189523Y-99676190D01*
X156237142Y-99652380D01*
X156260952Y-99628571D01*
X156284761Y-99580952D01*
X156284761Y-99533333D01*
X156260952Y-99485714D01*
X156237142Y-99461904D01*
X156189523Y-99438095D01*
X156094285Y-99414285D01*
X156046666Y-99390476D01*
X156022857Y-99366666D01*
X155999047Y-99319047D01*
X155999047Y-99271428D01*
X156022857Y-99223809D01*
X156046666Y-99200000D01*
X156094285Y-99176190D01*
X156213333Y-99176190D01*
X156284761Y-99200000D01*
X156499047Y-99676190D02*
X156499047Y-99176190D01*
X156689523Y-99176190D01*
X156737142Y-99200000D01*
X156760952Y-99223809D01*
X156784761Y-99271428D01*
X156784761Y-99342857D01*
X156760952Y-99390476D01*
X156737142Y-99414285D01*
X156689523Y-99438095D01*
X156499047Y-99438095D01*
X157260952Y-99676190D02*
X156975238Y-99676190D01*
X157118095Y-99676190D02*
X157118095Y-99176190D01*
X157070476Y-99247619D01*
X157022857Y-99295238D01*
X156975238Y-99319047D01*
D11*
X155168768Y-97391480D02*
X155931231Y-97391480D01*
X155550000Y-97772712D02*
X155550000Y-97010249D01*
G04 #@! TO.C,U1*
X158308095Y-104572380D02*
X158308095Y-105381904D01*
X158355714Y-105477142D01*
X158403333Y-105524761D01*
X158498571Y-105572380D01*
X158689047Y-105572380D01*
X158784285Y-105524761D01*
X158831904Y-105477142D01*
X158879523Y-105381904D01*
X158879523Y-104572380D01*
X159879523Y-105572380D02*
X159308095Y-105572380D01*
X159593809Y-105572380D02*
X159593809Y-104572380D01*
X159498571Y-104715238D01*
X159403333Y-104810476D01*
X159308095Y-104858095D01*
G04 #@! TO.C,TP10*
X146931904Y-91589380D02*
X147503333Y-91589380D01*
X147217619Y-92589380D02*
X147217619Y-91589380D01*
X147836666Y-92589380D02*
X147836666Y-91589380D01*
X148217619Y-91589380D01*
X148312857Y-91637000D01*
X148360476Y-91684619D01*
X148408095Y-91779857D01*
X148408095Y-91922714D01*
X148360476Y-92017952D01*
X148312857Y-92065571D01*
X148217619Y-92113190D01*
X147836666Y-92113190D01*
X149360476Y-92589380D02*
X148789047Y-92589380D01*
X149074761Y-92589380D02*
X149074761Y-91589380D01*
X148979523Y-91732238D01*
X148884285Y-91827476D01*
X148789047Y-91875095D01*
X149979523Y-91589380D02*
X150074761Y-91589380D01*
X150170000Y-91637000D01*
X150217619Y-91684619D01*
X150265238Y-91779857D01*
X150312857Y-91970333D01*
X150312857Y-92208428D01*
X150265238Y-92398904D01*
X150217619Y-92494142D01*
X150170000Y-92541761D01*
X150074761Y-92589380D01*
X149979523Y-92589380D01*
X149884285Y-92541761D01*
X149836666Y-92494142D01*
X149789047Y-92398904D01*
X149741428Y-92208428D01*
X149741428Y-91970333D01*
X149789047Y-91779857D01*
X149836666Y-91684619D01*
X149884285Y-91637000D01*
X149979523Y-91589380D01*
G04 #@! TO.C,TP7*
X145818095Y-95339380D02*
X146389523Y-95339380D01*
X146103809Y-96339380D02*
X146103809Y-95339380D01*
X146722857Y-96339380D02*
X146722857Y-95339380D01*
X147103809Y-95339380D01*
X147199047Y-95387000D01*
X147246666Y-95434619D01*
X147294285Y-95529857D01*
X147294285Y-95672714D01*
X147246666Y-95767952D01*
X147199047Y-95815571D01*
X147103809Y-95863190D01*
X146722857Y-95863190D01*
X147627619Y-95339380D02*
X148294285Y-95339380D01*
X147865714Y-96339380D01*
G04 #@! TO.C,TP2*
X146998095Y-97459380D02*
X147569523Y-97459380D01*
X147283809Y-98459380D02*
X147283809Y-97459380D01*
X147902857Y-98459380D02*
X147902857Y-97459380D01*
X148283809Y-97459380D01*
X148379047Y-97507000D01*
X148426666Y-97554619D01*
X148474285Y-97649857D01*
X148474285Y-97792714D01*
X148426666Y-97887952D01*
X148379047Y-97935571D01*
X148283809Y-97983190D01*
X147902857Y-97983190D01*
X148855238Y-97554619D02*
X148902857Y-97507000D01*
X148998095Y-97459380D01*
X149236190Y-97459380D01*
X149331428Y-97507000D01*
X149379047Y-97554619D01*
X149426666Y-97649857D01*
X149426666Y-97745095D01*
X149379047Y-97887952D01*
X148807619Y-98459380D01*
X149426666Y-98459380D01*
G04 #@! TO.C,R11*
X158567142Y-102767380D02*
X158233809Y-102291190D01*
X157995714Y-102767380D02*
X157995714Y-101767380D01*
X158376666Y-101767380D01*
X158471904Y-101815000D01*
X158519523Y-101862619D01*
X158567142Y-101957857D01*
X158567142Y-102100714D01*
X158519523Y-102195952D01*
X158471904Y-102243571D01*
X158376666Y-102291190D01*
X157995714Y-102291190D01*
X159519523Y-102767380D02*
X158948095Y-102767380D01*
X159233809Y-102767380D02*
X159233809Y-101767380D01*
X159138571Y-101910238D01*
X159043333Y-102005476D01*
X158948095Y-102053095D01*
X160471904Y-102767380D02*
X159900476Y-102767380D01*
X160186190Y-102767380D02*
X160186190Y-101767380D01*
X160090952Y-101910238D01*
X159995714Y-102005476D01*
X159900476Y-102053095D01*
G04 #@! TO.C,R10*
X162362380Y-103667856D02*
X161886190Y-104001189D01*
X162362380Y-104239284D02*
X161362380Y-104239284D01*
X161362380Y-103858332D01*
X161410000Y-103763094D01*
X161457619Y-103715475D01*
X161552857Y-103667856D01*
X161695714Y-103667856D01*
X161790952Y-103715475D01*
X161838571Y-103763094D01*
X161886190Y-103858332D01*
X161886190Y-104239284D01*
X162362380Y-102715475D02*
X162362380Y-103286903D01*
X162362380Y-103001189D02*
X161362380Y-103001189D01*
X161505238Y-103096427D01*
X161600476Y-103191665D01*
X161648095Y-103286903D01*
X161362380Y-102096427D02*
X161362380Y-102001189D01*
X161410000Y-101905951D01*
X161457619Y-101858332D01*
X161552857Y-101810713D01*
X161743333Y-101763094D01*
X161981428Y-101763094D01*
X162171904Y-101810713D01*
X162267142Y-101858332D01*
X162314761Y-101905951D01*
X162362380Y-102001189D01*
X162362380Y-102096427D01*
X162314761Y-102191665D01*
X162267142Y-102239284D01*
X162171904Y-102286903D01*
X161981428Y-102334522D01*
X161743333Y-102334522D01*
X161552857Y-102286903D01*
X161457619Y-102239284D01*
X161410000Y-102191665D01*
X161362380Y-102096427D01*
G04 #@! TO.C,R9*
X162232380Y-103171666D02*
X161756190Y-103505000D01*
X162232380Y-103743095D02*
X161232380Y-103743095D01*
X161232380Y-103362142D01*
X161280000Y-103266904D01*
X161327619Y-103219285D01*
X161422857Y-103171666D01*
X161565714Y-103171666D01*
X161660952Y-103219285D01*
X161708571Y-103266904D01*
X161756190Y-103362142D01*
X161756190Y-103743095D01*
X162232380Y-102695476D02*
X162232380Y-102505000D01*
X162184761Y-102409761D01*
X162137142Y-102362142D01*
X161994285Y-102266904D01*
X161803809Y-102219285D01*
X161422857Y-102219285D01*
X161327619Y-102266904D01*
X161280000Y-102314523D01*
X161232380Y-102409761D01*
X161232380Y-102600238D01*
X161280000Y-102695476D01*
X161327619Y-102743095D01*
X161422857Y-102790714D01*
X161660952Y-102790714D01*
X161756190Y-102743095D01*
X161803809Y-102695476D01*
X161851428Y-102600238D01*
X161851428Y-102409761D01*
X161803809Y-102314523D01*
X161756190Y-102266904D01*
X161660952Y-102219285D01*
G04 #@! TO.C,R6*
X163472380Y-102951666D02*
X162996190Y-103285000D01*
X163472380Y-103523095D02*
X162472380Y-103523095D01*
X162472380Y-103142142D01*
X162520000Y-103046904D01*
X162567619Y-102999285D01*
X162662857Y-102951666D01*
X162805714Y-102951666D01*
X162900952Y-102999285D01*
X162948571Y-103046904D01*
X162996190Y-103142142D01*
X162996190Y-103523095D01*
X162472380Y-102094523D02*
X162472380Y-102285000D01*
X162520000Y-102380238D01*
X162567619Y-102427857D01*
X162710476Y-102523095D01*
X162900952Y-102570714D01*
X163281904Y-102570714D01*
X163377142Y-102523095D01*
X163424761Y-102475476D01*
X163472380Y-102380238D01*
X163472380Y-102189761D01*
X163424761Y-102094523D01*
X163377142Y-102046904D01*
X163281904Y-101999285D01*
X163043809Y-101999285D01*
X162948571Y-102046904D01*
X162900952Y-102094523D01*
X162853333Y-102189761D01*
X162853333Y-102380238D01*
X162900952Y-102475476D01*
X162948571Y-102523095D01*
X163043809Y-102570714D01*
G04 #@! TO.C,TP6*
D15*
X160213571Y-91274285D02*
X160642142Y-91274285D01*
X160427857Y-92024285D02*
X160427857Y-91274285D01*
X160892142Y-92024285D02*
X160892142Y-91274285D01*
X161177857Y-91274285D01*
X161249285Y-91310000D01*
X161285000Y-91345714D01*
X161320714Y-91417142D01*
X161320714Y-91524285D01*
X161285000Y-91595714D01*
X161249285Y-91631428D01*
X161177857Y-91667142D01*
X160892142Y-91667142D01*
X161963571Y-91274285D02*
X161820714Y-91274285D01*
X161749285Y-91310000D01*
X161713571Y-91345714D01*
X161642142Y-91452857D01*
X161606428Y-91595714D01*
X161606428Y-91881428D01*
X161642142Y-91952857D01*
X161677857Y-91988571D01*
X161749285Y-92024285D01*
X161892142Y-92024285D01*
X161963571Y-91988571D01*
X161999285Y-91952857D01*
X162035000Y-91881428D01*
X162035000Y-91702857D01*
X161999285Y-91631428D01*
X161963571Y-91595714D01*
X161892142Y-91560000D01*
X161749285Y-91560000D01*
X161677857Y-91595714D01*
X161642142Y-91631428D01*
X161606428Y-91702857D01*
G04 #@! TO.C,C14*
D11*
X160767142Y-92827857D02*
X160814761Y-92875476D01*
X160862380Y-93018333D01*
X160862380Y-93113571D01*
X160814761Y-93256428D01*
X160719523Y-93351666D01*
X160624285Y-93399285D01*
X160433809Y-93446904D01*
X160290952Y-93446904D01*
X160100476Y-93399285D01*
X160005238Y-93351666D01*
X159910000Y-93256428D01*
X159862380Y-93113571D01*
X159862380Y-93018333D01*
X159910000Y-92875476D01*
X159957619Y-92827857D01*
X160862380Y-91875476D02*
X160862380Y-92446904D01*
X160862380Y-92161190D02*
X159862380Y-92161190D01*
X160005238Y-92256428D01*
X160100476Y-92351666D01*
X160148095Y-92446904D01*
X160195714Y-91018333D02*
X160862380Y-91018333D01*
X159814761Y-91256428D02*
X160529047Y-91494523D01*
X160529047Y-90875476D01*
G04 #@! TO.C,R7*
X158763332Y-92787380D02*
X158429999Y-92311190D01*
X158191903Y-92787380D02*
X158191903Y-91787380D01*
X158572856Y-91787380D01*
X158668094Y-91835000D01*
X158715713Y-91882619D01*
X158763332Y-91977857D01*
X158763332Y-92120714D01*
X158715713Y-92215952D01*
X158668094Y-92263571D01*
X158572856Y-92311190D01*
X158191903Y-92311190D01*
X159096665Y-91787380D02*
X159763332Y-91787380D01*
X159334760Y-92787380D01*
G04 #@! TO.C,R5*
X155853333Y-91227380D02*
X155520000Y-90751190D01*
X155281904Y-91227380D02*
X155281904Y-90227380D01*
X155662857Y-90227380D01*
X155758095Y-90275000D01*
X155805714Y-90322619D01*
X155853333Y-90417857D01*
X155853333Y-90560714D01*
X155805714Y-90655952D01*
X155758095Y-90703571D01*
X155662857Y-90751190D01*
X155281904Y-90751190D01*
X156758095Y-90227380D02*
X156281904Y-90227380D01*
X156234285Y-90703571D01*
X156281904Y-90655952D01*
X156377142Y-90608333D01*
X156615238Y-90608333D01*
X156710476Y-90655952D01*
X156758095Y-90703571D01*
X156805714Y-90798809D01*
X156805714Y-91036904D01*
X156758095Y-91132142D01*
X156710476Y-91179761D01*
X156615238Y-91227380D01*
X156377142Y-91227380D01*
X156281904Y-91179761D01*
X156234285Y-91132142D01*
G04 #@! TO.C,P3*
X158258206Y-87576969D02*
X158965312Y-86869862D01*
X159234687Y-87139236D01*
X159268358Y-87240251D01*
X159268358Y-87307595D01*
X159234687Y-87408610D01*
X159133671Y-87509625D01*
X159032656Y-87543297D01*
X158965312Y-87543297D01*
X158864297Y-87509625D01*
X158594923Y-87240251D01*
X159605076Y-87509625D02*
X160042809Y-87947358D01*
X159537732Y-87981030D01*
X159638748Y-88082045D01*
X159672419Y-88183061D01*
X159672419Y-88250404D01*
X159638748Y-88351419D01*
X159470389Y-88519778D01*
X159369374Y-88553450D01*
X159302030Y-88553450D01*
X159201015Y-88519778D01*
X158998984Y-88317748D01*
X158965312Y-88216732D01*
X158965312Y-88149389D01*
G04 #@! TO.C,P4*
X146336752Y-88259423D02*
X147043858Y-87552316D01*
X147313233Y-87821690D01*
X147346904Y-87922705D01*
X147346904Y-87990049D01*
X147313233Y-88091064D01*
X147212217Y-88192079D01*
X147111202Y-88225751D01*
X147043858Y-88225751D01*
X146942843Y-88192079D01*
X146673469Y-87922705D01*
X147818309Y-88798171D02*
X147346904Y-89269576D01*
X147919324Y-88360438D02*
X147245889Y-88697156D01*
X147683622Y-89134889D01*
G04 #@! TO.C,P2*
D16*
X149486428Y-87444285D02*
X149486428Y-86694285D01*
X149772142Y-86694285D01*
X149843571Y-86730000D01*
X149879285Y-86765714D01*
X149915000Y-86837142D01*
X149915000Y-86944285D01*
X149879285Y-87015714D01*
X149843571Y-87051428D01*
X149772142Y-87087142D01*
X149486428Y-87087142D01*
X150200714Y-86765714D02*
X150236428Y-86730000D01*
X150307857Y-86694285D01*
X150486428Y-86694285D01*
X150557857Y-86730000D01*
X150593571Y-86765714D01*
X150629285Y-86837142D01*
X150629285Y-86908571D01*
X150593571Y-87015714D01*
X150165000Y-87444285D01*
X150629285Y-87444285D01*
G04 #@! TO.C,S1*
D12*
X143568095Y-103294761D02*
X143710952Y-103342380D01*
X143949047Y-103342380D01*
X144044285Y-103294761D01*
X144091904Y-103247142D01*
X144139523Y-103151904D01*
X144139523Y-103056666D01*
X144091904Y-102961428D01*
X144044285Y-102913809D01*
X143949047Y-102866190D01*
X143758571Y-102818571D01*
X143663333Y-102770952D01*
X143615714Y-102723333D01*
X143568095Y-102628095D01*
X143568095Y-102532857D01*
X143615714Y-102437619D01*
X143663333Y-102390000D01*
X143758571Y-102342380D01*
X143996666Y-102342380D01*
X144139523Y-102390000D01*
X145091904Y-103342380D02*
X144520476Y-103342380D01*
X144806190Y-103342380D02*
X144806190Y-102342380D01*
X144710952Y-102485238D01*
X144615714Y-102580476D01*
X144520476Y-102628095D01*
G04 #@! TO.C,C5*
D10*
X147388571Y-92508333D02*
X147412380Y-92532142D01*
X147436190Y-92603571D01*
X147436190Y-92651190D01*
X147412380Y-92722619D01*
X147364761Y-92770238D01*
X147317142Y-92794047D01*
X147221904Y-92817857D01*
X147150476Y-92817857D01*
X147055238Y-92794047D01*
X147007619Y-92770238D01*
X146960000Y-92722619D01*
X146936190Y-92651190D01*
X146936190Y-92603571D01*
X146960000Y-92532142D01*
X146983809Y-92508333D01*
X146936190Y-92055952D02*
X146936190Y-92294047D01*
X147174285Y-92317857D01*
X147150476Y-92294047D01*
X147126666Y-92246428D01*
X147126666Y-92127380D01*
X147150476Y-92079761D01*
X147174285Y-92055952D01*
X147221904Y-92032142D01*
X147340952Y-92032142D01*
X147388571Y-92055952D01*
X147412380Y-92079761D01*
X147436190Y-92127380D01*
X147436190Y-92246428D01*
X147412380Y-92294047D01*
X147388571Y-92317857D01*
G04 #@! TD*
M02*
