G04 #@! TF.GenerationSoftware,KiCad,Pcbnew,5.1.12-84ad8e8a86~92~ubuntu20.04.1*
G04 #@! TF.CreationDate,2022-02-16T15:18:21-08:00*
G04 #@! TF.ProjectId,Zooids,5a6f6f69-6473-42e6-9b69-6361645f7063,rev?*
G04 #@! TF.SameCoordinates,Original*
G04 #@! TF.FileFunction,Legend,Bot*
G04 #@! TF.FilePolarity,Positive*
%FSLAX46Y46*%
G04 Gerber Fmt 4.6, Leading zero omitted, Abs format (unit mm)*
G04 Created by KiCad (PCBNEW 5.1.12-84ad8e8a86~92~ubuntu20.04.1) date 2022-02-16 15:18:21*
%MOMM*%
%LPD*%
G01*
G04 APERTURE LIST*
%ADD10C,0.075000*%
%ADD11C,0.127000*%
%ADD12C,0.200000*%
%ADD13C,0.120000*%
%ADD14C,0.100000*%
%ADD15C,0.150000*%
%ADD16C,0.070000*%
%ADD17C,0.125000*%
G04 APERTURE END LIST*
D10*
X145810476Y-94045714D02*
X145429523Y-94045714D01*
X145620000Y-94236190D02*
X145620000Y-93855238D01*
D11*
G04 #@! TO.C,MK1*
X158810000Y-99818000D02*
X158410000Y-99818000D01*
X157285000Y-96318000D02*
X159935000Y-96318000D01*
D12*
X156972500Y-99418000D02*
G75*
G03*
X156972500Y-99418000I-100000J0D01*
G01*
D11*
X159935000Y-96318000D02*
X159935000Y-98018000D01*
X157285000Y-96318000D02*
X157285000Y-98068000D01*
D13*
G04 #@! TO.C,TP8*
X143560000Y-98455000D02*
G75*
G03*
X143560000Y-98455000I-700000J0D01*
G01*
D12*
G04 #@! TO.C,U4*
X151835000Y-98025000D02*
G75*
G03*
X151835000Y-98025000I-100000J0D01*
G01*
D11*
X152630000Y-98480000D02*
X154730000Y-98480000D01*
X152630000Y-96070000D02*
X154730000Y-96070000D01*
D14*
G04 #@! TO.C,U9*
X160330000Y-103315000D02*
X159830000Y-103315000D01*
X160130000Y-101215000D02*
X158430000Y-101215000D01*
X158430000Y-103115000D02*
X158430000Y-101215000D01*
X160130000Y-103115000D02*
X160130000Y-101215000D01*
X160130000Y-103115000D02*
X158430000Y-103115000D01*
X160330000Y-103315000D02*
X160330000Y-102815000D01*
D13*
G04 #@! TO.C,R13*
X153810000Y-93738641D02*
X153810000Y-93431359D01*
X153050000Y-93738641D02*
X153050000Y-93431359D01*
G04 #@! TO.C,R12*
X152650000Y-93748641D02*
X152650000Y-93441359D01*
X151890000Y-93748641D02*
X151890000Y-93441359D01*
G04 #@! TO.C,R4*
X155750000Y-91191359D02*
X155750000Y-91498641D01*
X156510000Y-91191359D02*
X156510000Y-91498641D01*
G04 #@! TO.C,C6*
X150970000Y-97117164D02*
X150970000Y-97332836D01*
X151690000Y-97117164D02*
X151690000Y-97332836D01*
D12*
G04 #@! TO.C,U6*
X157430000Y-87425000D02*
G75*
G03*
X157430000Y-87425000I-100000J0D01*
G01*
D11*
X156870000Y-88350000D02*
X156870000Y-90350000D01*
X159290000Y-88350000D02*
X159290000Y-90350000D01*
D12*
G04 #@! TO.C,U5*
X148770000Y-87135000D02*
G75*
G03*
X148770000Y-87135000I-100000J0D01*
G01*
D11*
X148210000Y-88060000D02*
X148210000Y-90060000D01*
X150630000Y-88060000D02*
X150630000Y-90060000D01*
G04 #@! TO.C,MK2*
X148845500Y-99828000D02*
X148445500Y-99828000D01*
X147320500Y-96328000D02*
X149970500Y-96328000D01*
D12*
X147008000Y-99428000D02*
G75*
G03*
X147008000Y-99428000I-100000J0D01*
G01*
D11*
X149970500Y-96328000D02*
X149970500Y-98028000D01*
X147320500Y-96328000D02*
X147320500Y-98078000D01*
D13*
G04 #@! TO.C,L1*
X147387878Y-101605000D02*
X148187122Y-101605000D01*
X147387878Y-100485000D02*
X148187122Y-100485000D01*
G04 #@! TO.C,C12*
X157232164Y-87385000D02*
X157447836Y-87385000D01*
X157232164Y-86665000D02*
X157447836Y-86665000D01*
G04 #@! TO.C,C11*
X144782164Y-93415000D02*
X144997836Y-93415000D01*
X144782164Y-92695000D02*
X144997836Y-92695000D01*
G04 #@! TO.C,P1*
X147590000Y-95580000D02*
X150940000Y-95580000D01*
X150940000Y-95580000D02*
X150940000Y-94530000D01*
X150940000Y-94530000D02*
X151130000Y-94530000D01*
X147590000Y-91160000D02*
X150940000Y-91160000D01*
X150940000Y-91160000D02*
X150940000Y-92210000D01*
X146420000Y-94510000D02*
X146420000Y-94160000D01*
X146420000Y-94160000D02*
X146920000Y-93760000D01*
X146920000Y-93760000D02*
X146920000Y-92980000D01*
X146920000Y-92980000D02*
X146420000Y-92580000D01*
X146420000Y-92580000D02*
X146420000Y-92230000D01*
X151983553Y-94220000D02*
X151630000Y-93970000D01*
X151630000Y-93970000D02*
X151983553Y-93720000D01*
X151983553Y-93720000D02*
X151983553Y-94220000D01*
G04 #@! TO.C,TP1*
X143540000Y-95865000D02*
G75*
G03*
X143540000Y-95865000I-700000J0D01*
G01*
D14*
G04 #@! TO.C,U3*
G36*
X151432200Y-89924500D02*
G01*
X151432200Y-90305500D01*
X151686200Y-90305500D01*
X151686200Y-89924500D01*
X151432200Y-89924500D01*
G37*
X151432200Y-89924500D02*
X151432200Y-90305500D01*
X151686200Y-90305500D01*
X151686200Y-89924500D01*
X151432200Y-89924500D01*
D13*
G04 #@! TO.C,C8*
X154357836Y-88245000D02*
X154142164Y-88245000D01*
X154357836Y-88965000D02*
X154142164Y-88965000D01*
G04 #@! TO.C,C3*
X152082164Y-88965000D02*
X152297836Y-88965000D01*
X152082164Y-88245000D02*
X152297836Y-88245000D01*
G04 #@! TO.C,TP9*
X144000000Y-101265000D02*
G75*
G03*
X144000000Y-101265000I-700000J0D01*
G01*
G04 #@! TO.C,TP5*
X164610000Y-95075000D02*
G75*
G03*
X164610000Y-95075000I-700000J0D01*
G01*
G04 #@! TO.C,TP4*
X164630000Y-97105000D02*
G75*
G03*
X164630000Y-97105000I-700000J0D01*
G01*
G04 #@! TO.C,TP3*
X164500000Y-99125000D02*
G75*
G03*
X164500000Y-99125000I-700000J0D01*
G01*
G04 #@! TO.C,R8*
X161856359Y-102525000D02*
X162163641Y-102525000D01*
X161856359Y-101765000D02*
X162163641Y-101765000D01*
G04 #@! TO.C,R3*
X149756359Y-103985000D02*
X150063641Y-103985000D01*
X149756359Y-103225000D02*
X150063641Y-103225000D01*
G04 #@! TO.C,R2*
X147806359Y-102955000D02*
X148113641Y-102955000D01*
X147806359Y-102195000D02*
X148113641Y-102195000D01*
G04 #@! TO.C,R1*
X147816360Y-103985000D02*
X148123642Y-103985000D01*
X147816360Y-103225000D02*
X148123642Y-103225000D01*
G04 #@! TO.C,C1*
X147270000Y-89642164D02*
X147270000Y-89857836D01*
X147990000Y-89642164D02*
X147990000Y-89857836D01*
G04 #@! TO.C,C10*
X161902164Y-103515000D02*
X162117836Y-103515000D01*
X161902164Y-102795000D02*
X162117836Y-102795000D01*
G04 #@! TO.C,C2*
X155890000Y-89492836D02*
X155890000Y-89277164D01*
X156610000Y-89492836D02*
X156610000Y-89277164D01*
G04 #@! TO.C,C4*
X145585580Y-102835000D02*
X145304420Y-102835000D01*
X145585580Y-103855000D02*
X145304420Y-103855000D01*
G04 #@! TO.C,C7*
X146740000Y-98449420D02*
X146740000Y-98730580D01*
X145720000Y-98449420D02*
X145720000Y-98730580D01*
G04 #@! TO.C,U2*
D15*
X145991904Y-99267380D02*
X145991904Y-100076904D01*
X145944285Y-100172142D01*
X145896666Y-100219761D01*
X145801428Y-100267380D01*
X145610952Y-100267380D01*
X145515714Y-100219761D01*
X145468095Y-100172142D01*
X145420476Y-100076904D01*
X145420476Y-99267380D01*
X144991904Y-99362619D02*
X144944285Y-99315000D01*
X144849047Y-99267380D01*
X144610952Y-99267380D01*
X144515714Y-99315000D01*
X144468095Y-99362619D01*
X144420476Y-99457857D01*
X144420476Y-99553095D01*
X144468095Y-99695952D01*
X145039523Y-100267380D01*
X144420476Y-100267380D01*
X144209285Y-95345000D02*
X144209285Y-94987857D01*
X143459285Y-94987857D01*
X144209285Y-95595000D02*
X143459285Y-95595000D01*
X143995000Y-95845000D01*
X143459285Y-96095000D01*
X144209285Y-96095000D01*
X143459285Y-96380714D02*
X143459285Y-96845000D01*
X143745000Y-96595000D01*
X143745000Y-96702142D01*
X143780714Y-96773571D01*
X143816428Y-96809285D01*
X143887857Y-96845000D01*
X144066428Y-96845000D01*
X144137857Y-96809285D01*
X144173571Y-96773571D01*
X144209285Y-96702142D01*
X144209285Y-96487857D01*
X144173571Y-96416428D01*
X144137857Y-96380714D01*
X143459285Y-97487857D02*
X143459285Y-97345000D01*
X143495000Y-97273571D01*
X143530714Y-97237857D01*
X143637857Y-97166428D01*
X143780714Y-97130714D01*
X144066428Y-97130714D01*
X144137857Y-97166428D01*
X144173571Y-97202142D01*
X144209285Y-97273571D01*
X144209285Y-97416428D01*
X144173571Y-97487857D01*
X144137857Y-97523571D01*
X144066428Y-97559285D01*
X143887857Y-97559285D01*
X143816428Y-97523571D01*
X143780714Y-97487857D01*
X143745000Y-97416428D01*
X143745000Y-97273571D01*
X143780714Y-97202142D01*
X143816428Y-97166428D01*
X143887857Y-97130714D01*
X143459285Y-97809285D02*
X143459285Y-98309285D01*
X144209285Y-97987857D01*
X144209285Y-98987857D02*
X144209285Y-98559285D01*
X144209285Y-98773571D02*
X143459285Y-98773571D01*
X143566428Y-98702142D01*
X143637857Y-98630714D01*
X143673571Y-98559285D01*
X143459285Y-99202142D02*
X143459285Y-99630714D01*
X144209285Y-99416428D02*
X143459285Y-99416428D01*
X144209285Y-100237857D02*
X144209285Y-99880714D01*
X143459285Y-99880714D01*
X143459285Y-100416428D02*
X144209285Y-100916428D01*
X143459285Y-100916428D02*
X144209285Y-100416428D01*
X143923571Y-101202142D02*
X143923571Y-101773571D01*
X143459285Y-102059285D02*
X143459285Y-102523571D01*
X143745000Y-102273571D01*
X143745000Y-102380714D01*
X143780714Y-102452142D01*
X143816428Y-102487857D01*
X143887857Y-102523571D01*
X144066428Y-102523571D01*
X144137857Y-102487857D01*
X144173571Y-102452142D01*
X144209285Y-102380714D01*
X144209285Y-102166428D01*
X144173571Y-102095000D01*
X144137857Y-102059285D01*
X144137857Y-102845000D02*
X144173571Y-102880714D01*
X144209285Y-102845000D01*
X144173571Y-102809285D01*
X144137857Y-102845000D01*
X144209285Y-102845000D01*
X143459285Y-103130714D02*
X143459285Y-103595000D01*
X143745000Y-103345000D01*
X143745000Y-103452142D01*
X143780714Y-103523571D01*
X143816428Y-103559285D01*
X143887857Y-103595000D01*
X144066428Y-103595000D01*
X144137857Y-103559285D01*
X144173571Y-103523571D01*
X144209285Y-103452142D01*
X144209285Y-103237857D01*
X144173571Y-103166428D01*
X144137857Y-103130714D01*
X144280714Y-103737857D02*
X144280714Y-104309285D01*
X144209285Y-104487857D02*
X143459285Y-104487857D01*
X144209285Y-104916428D01*
X143459285Y-104916428D01*
X143459285Y-105416428D02*
X143459285Y-105559285D01*
X143495000Y-105630714D01*
X143566428Y-105702142D01*
X143709285Y-105737857D01*
X143959285Y-105737857D01*
X144102142Y-105702142D01*
X144173571Y-105630714D01*
X144209285Y-105559285D01*
X144209285Y-105416428D01*
X144173571Y-105345000D01*
X144102142Y-105273571D01*
X143959285Y-105237857D01*
X143709285Y-105237857D01*
X143566428Y-105273571D01*
X143495000Y-105345000D01*
X143459285Y-105416428D01*
X144209285Y-106059285D02*
X143459285Y-106059285D01*
X143459285Y-106345000D01*
X143495000Y-106416428D01*
X143530714Y-106452142D01*
X143602142Y-106487857D01*
X143709285Y-106487857D01*
X143780714Y-106452142D01*
X143816428Y-106416428D01*
X143852142Y-106345000D01*
X143852142Y-106059285D01*
X143816428Y-107059285D02*
X143852142Y-107166428D01*
X143887857Y-107202142D01*
X143959285Y-107237857D01*
X144066428Y-107237857D01*
X144137857Y-107202142D01*
X144173571Y-107166428D01*
X144209285Y-107095000D01*
X144209285Y-106809285D01*
X143459285Y-106809285D01*
X143459285Y-107059285D01*
X143495000Y-107130714D01*
X143530714Y-107166428D01*
X143602142Y-107202142D01*
X143673571Y-107202142D01*
X143745000Y-107166428D01*
X143780714Y-107130714D01*
X143816428Y-107059285D01*
X143816428Y-106809285D01*
X145140000Y-100877380D02*
X145140000Y-101115476D01*
X145378095Y-101020238D02*
X145140000Y-101115476D01*
X144901904Y-101020238D01*
X145282857Y-101305952D02*
X145140000Y-101115476D01*
X144997142Y-101305952D01*
G04 #@! TO.C,MK1*
D10*
X159029248Y-100561888D02*
X159029248Y-100061888D01*
X158862582Y-100419031D01*
X158695915Y-100061888D01*
X158695915Y-100561888D01*
X158457820Y-100561888D02*
X158457820Y-100061888D01*
X158172106Y-100561888D02*
X158386391Y-100276174D01*
X158172106Y-100061888D02*
X158457820Y-100347602D01*
X157695915Y-100561888D02*
X157981629Y-100561888D01*
X157838772Y-100561888D02*
X157838772Y-100061888D01*
X157886391Y-100133317D01*
X157934010Y-100180936D01*
X157981629Y-100204745D01*
G04 #@! TO.C,TP8*
D15*
X144121904Y-99355380D02*
X143550476Y-99355380D01*
X143836190Y-100355380D02*
X143836190Y-99355380D01*
X143217142Y-100355380D02*
X143217142Y-99355380D01*
X142836190Y-99355380D01*
X142740952Y-99403000D01*
X142693333Y-99450619D01*
X142645714Y-99545857D01*
X142645714Y-99688714D01*
X142693333Y-99783952D01*
X142740952Y-99831571D01*
X142836190Y-99879190D01*
X143217142Y-99879190D01*
X142074285Y-99783952D02*
X142169523Y-99736333D01*
X142217142Y-99688714D01*
X142264761Y-99593476D01*
X142264761Y-99545857D01*
X142217142Y-99450619D01*
X142169523Y-99403000D01*
X142074285Y-99355380D01*
X141883809Y-99355380D01*
X141788571Y-99403000D01*
X141740952Y-99450619D01*
X141693333Y-99545857D01*
X141693333Y-99593476D01*
X141740952Y-99688714D01*
X141788571Y-99736333D01*
X141883809Y-99783952D01*
X142074285Y-99783952D01*
X142169523Y-99831571D01*
X142217142Y-99879190D01*
X142264761Y-99974428D01*
X142264761Y-100164904D01*
X142217142Y-100260142D01*
X142169523Y-100307761D01*
X142074285Y-100355380D01*
X141883809Y-100355380D01*
X141788571Y-100307761D01*
X141740952Y-100260142D01*
X141693333Y-100164904D01*
X141693333Y-99974428D01*
X141740952Y-99879190D01*
X141788571Y-99831571D01*
X141883809Y-99783952D01*
G04 #@! TO.C,U4*
X151811904Y-96517380D02*
X151811904Y-97326904D01*
X151764285Y-97422142D01*
X151716666Y-97469761D01*
X151621428Y-97517380D01*
X151430952Y-97517380D01*
X151335714Y-97469761D01*
X151288095Y-97422142D01*
X151240476Y-97326904D01*
X151240476Y-96517380D01*
X150335714Y-96850714D02*
X150335714Y-97517380D01*
X150573809Y-96469761D02*
X150811904Y-97184047D01*
X150192857Y-97184047D01*
G04 #@! TO.C,U9*
X161232380Y-101403095D02*
X162041904Y-101403095D01*
X162137142Y-101450714D01*
X162184761Y-101498333D01*
X162232380Y-101593571D01*
X162232380Y-101784047D01*
X162184761Y-101879285D01*
X162137142Y-101926904D01*
X162041904Y-101974523D01*
X161232380Y-101974523D01*
X162232380Y-102498333D02*
X162232380Y-102688809D01*
X162184761Y-102784047D01*
X162137142Y-102831666D01*
X161994285Y-102926904D01*
X161803809Y-102974523D01*
X161422857Y-102974523D01*
X161327619Y-102926904D01*
X161280000Y-102879285D01*
X161232380Y-102784047D01*
X161232380Y-102593571D01*
X161280000Y-102498333D01*
X161327619Y-102450714D01*
X161422857Y-102403095D01*
X161660952Y-102403095D01*
X161756190Y-102450714D01*
X161803809Y-102498333D01*
X161851428Y-102593571D01*
X161851428Y-102784047D01*
X161803809Y-102879285D01*
X161756190Y-102926904D01*
X161660952Y-102974523D01*
G04 #@! TO.C,R13*
X155052380Y-92942142D02*
X154576190Y-92608809D01*
X155052380Y-92370714D02*
X154052380Y-92370714D01*
X154052380Y-92751666D01*
X154100000Y-92846904D01*
X154147619Y-92894523D01*
X154242857Y-92942142D01*
X154385714Y-92942142D01*
X154480952Y-92894523D01*
X154528571Y-92846904D01*
X154576190Y-92751666D01*
X154576190Y-92370714D01*
X155052380Y-93894523D02*
X155052380Y-93323095D01*
X155052380Y-93608809D02*
X154052380Y-93608809D01*
X154195238Y-93513571D01*
X154290476Y-93418333D01*
X154338095Y-93323095D01*
X154052380Y-94227857D02*
X154052380Y-94846904D01*
X154433333Y-94513571D01*
X154433333Y-94656428D01*
X154480952Y-94751666D01*
X154528571Y-94799285D01*
X154623809Y-94846904D01*
X154861904Y-94846904D01*
X154957142Y-94799285D01*
X155004761Y-94751666D01*
X155052380Y-94656428D01*
X155052380Y-94370714D01*
X155004761Y-94275476D01*
X154957142Y-94227857D01*
G04 #@! TO.C,R12*
X153892380Y-92952142D02*
X153416190Y-92618809D01*
X153892380Y-92380714D02*
X152892380Y-92380714D01*
X152892380Y-92761666D01*
X152940000Y-92856904D01*
X152987619Y-92904523D01*
X153082857Y-92952142D01*
X153225714Y-92952142D01*
X153320952Y-92904523D01*
X153368571Y-92856904D01*
X153416190Y-92761666D01*
X153416190Y-92380714D01*
X153892380Y-93904523D02*
X153892380Y-93333095D01*
X153892380Y-93618809D02*
X152892380Y-93618809D01*
X153035238Y-93523571D01*
X153130476Y-93428333D01*
X153178095Y-93333095D01*
X152987619Y-94285476D02*
X152940000Y-94333095D01*
X152892380Y-94428333D01*
X152892380Y-94666428D01*
X152940000Y-94761666D01*
X152987619Y-94809285D01*
X153082857Y-94856904D01*
X153178095Y-94856904D01*
X153320952Y-94809285D01*
X153892380Y-94237857D01*
X153892380Y-94856904D01*
G04 #@! TO.C,R4*
X155412380Y-91178333D02*
X154936190Y-90845000D01*
X155412380Y-90606904D02*
X154412380Y-90606904D01*
X154412380Y-90987857D01*
X154460000Y-91083095D01*
X154507619Y-91130714D01*
X154602857Y-91178333D01*
X154745714Y-91178333D01*
X154840952Y-91130714D01*
X154888571Y-91083095D01*
X154936190Y-90987857D01*
X154936190Y-90606904D01*
X154745714Y-92035476D02*
X155412380Y-92035476D01*
X154364761Y-91797380D02*
X155079047Y-91559285D01*
X155079047Y-92178333D01*
G04 #@! TO.C,C6*
X150527142Y-97058333D02*
X150574761Y-97010714D01*
X150622380Y-96867857D01*
X150622380Y-96772619D01*
X150574761Y-96629761D01*
X150479523Y-96534523D01*
X150384285Y-96486904D01*
X150193809Y-96439285D01*
X150050952Y-96439285D01*
X149860476Y-96486904D01*
X149765238Y-96534523D01*
X149670000Y-96629761D01*
X149622380Y-96772619D01*
X149622380Y-96867857D01*
X149670000Y-97010714D01*
X149717619Y-97058333D01*
X149622380Y-97915476D02*
X149622380Y-97725000D01*
X149670000Y-97629761D01*
X149717619Y-97582142D01*
X149860476Y-97486904D01*
X150050952Y-97439285D01*
X150431904Y-97439285D01*
X150527142Y-97486904D01*
X150574761Y-97534523D01*
X150622380Y-97629761D01*
X150622380Y-97820238D01*
X150574761Y-97915476D01*
X150527142Y-97963095D01*
X150431904Y-98010714D01*
X150193809Y-98010714D01*
X150098571Y-97963095D01*
X150050952Y-97915476D01*
X150003333Y-97820238D01*
X150003333Y-97629761D01*
X150050952Y-97534523D01*
X150098571Y-97486904D01*
X150193809Y-97439285D01*
G04 #@! TO.C,U6*
X158717619Y-86959523D02*
X158717619Y-87477619D01*
X158687142Y-87538571D01*
X158656666Y-87569047D01*
X158595714Y-87599523D01*
X158473809Y-87599523D01*
X158412857Y-87569047D01*
X158382380Y-87538571D01*
X158351904Y-87477619D01*
X158351904Y-86959523D01*
X157772857Y-86959523D02*
X157894761Y-86959523D01*
X157955714Y-86990000D01*
X157986190Y-87020476D01*
X158047142Y-87111904D01*
X158077619Y-87233809D01*
X158077619Y-87477619D01*
X158047142Y-87538571D01*
X158016666Y-87569047D01*
X157955714Y-87599523D01*
X157833809Y-87599523D01*
X157772857Y-87569047D01*
X157742380Y-87538571D01*
X157711904Y-87477619D01*
X157711904Y-87325238D01*
X157742380Y-87264285D01*
X157772857Y-87233809D01*
X157833809Y-87203333D01*
X157955714Y-87203333D01*
X158016666Y-87233809D01*
X158047142Y-87264285D01*
X158077619Y-87325238D01*
G04 #@! TO.C,U5*
X150097619Y-86679523D02*
X150097619Y-87197619D01*
X150067142Y-87258571D01*
X150036666Y-87289047D01*
X149975714Y-87319523D01*
X149853809Y-87319523D01*
X149792857Y-87289047D01*
X149762380Y-87258571D01*
X149731904Y-87197619D01*
X149731904Y-86679523D01*
X149122380Y-86679523D02*
X149427142Y-86679523D01*
X149457619Y-86984285D01*
X149427142Y-86953809D01*
X149366190Y-86923333D01*
X149213809Y-86923333D01*
X149152857Y-86953809D01*
X149122380Y-86984285D01*
X149091904Y-87045238D01*
X149091904Y-87197619D01*
X149122380Y-87258571D01*
X149152857Y-87289047D01*
X149213809Y-87319523D01*
X149366190Y-87319523D01*
X149427142Y-87289047D01*
X149457619Y-87258571D01*
G04 #@! TO.C,MK2*
D16*
X149064748Y-100571888D02*
X149064748Y-100071888D01*
X148898082Y-100429031D01*
X148731415Y-100071888D01*
X148731415Y-100571888D01*
X148493320Y-100571888D02*
X148493320Y-100071888D01*
X148207606Y-100571888D02*
X148421891Y-100286174D01*
X148207606Y-100071888D02*
X148493320Y-100357602D01*
X148017129Y-100119507D02*
X147993320Y-100095698D01*
X147945701Y-100071888D01*
X147826653Y-100071888D01*
X147779034Y-100095698D01*
X147755225Y-100119507D01*
X147731415Y-100167126D01*
X147731415Y-100214745D01*
X147755225Y-100286174D01*
X148040939Y-100571888D01*
X147731415Y-100571888D01*
G04 #@! TO.C,L1*
D15*
X147451666Y-100297380D02*
X147927857Y-100297380D01*
X147927857Y-99297380D01*
X146594523Y-100297380D02*
X147165952Y-100297380D01*
X146880238Y-100297380D02*
X146880238Y-99297380D01*
X146975476Y-99440238D01*
X147070714Y-99535476D01*
X147165952Y-99583095D01*
G04 #@! TO.C,C12*
D10*
X157161428Y-86583571D02*
X157185238Y-86607380D01*
X157256666Y-86631190D01*
X157304285Y-86631190D01*
X157375714Y-86607380D01*
X157423333Y-86559761D01*
X157447142Y-86512142D01*
X157470952Y-86416904D01*
X157470952Y-86345476D01*
X157447142Y-86250238D01*
X157423333Y-86202619D01*
X157375714Y-86155000D01*
X157304285Y-86131190D01*
X157256666Y-86131190D01*
X157185238Y-86155000D01*
X157161428Y-86178809D01*
X156685238Y-86631190D02*
X156970952Y-86631190D01*
X156828095Y-86631190D02*
X156828095Y-86131190D01*
X156875714Y-86202619D01*
X156923333Y-86250238D01*
X156970952Y-86274047D01*
X156494761Y-86178809D02*
X156470952Y-86155000D01*
X156423333Y-86131190D01*
X156304285Y-86131190D01*
X156256666Y-86155000D01*
X156232857Y-86178809D01*
X156209047Y-86226428D01*
X156209047Y-86274047D01*
X156232857Y-86345476D01*
X156518571Y-86631190D01*
X156209047Y-86631190D01*
G04 #@! TO.C,C11*
D15*
X145532857Y-94572142D02*
X145580476Y-94619761D01*
X145723333Y-94667380D01*
X145818571Y-94667380D01*
X145961428Y-94619761D01*
X146056666Y-94524523D01*
X146104285Y-94429285D01*
X146151904Y-94238809D01*
X146151904Y-94095952D01*
X146104285Y-93905476D01*
X146056666Y-93810238D01*
X145961428Y-93715000D01*
X145818571Y-93667380D01*
X145723333Y-93667380D01*
X145580476Y-93715000D01*
X145532857Y-93762619D01*
X144580476Y-94667380D02*
X145151904Y-94667380D01*
X144866190Y-94667380D02*
X144866190Y-93667380D01*
X144961428Y-93810238D01*
X145056666Y-93905476D01*
X145151904Y-93953095D01*
X143628095Y-94667380D02*
X144199523Y-94667380D01*
X143913809Y-94667380D02*
X143913809Y-93667380D01*
X144009047Y-93810238D01*
X144104285Y-93905476D01*
X144199523Y-93953095D01*
G04 #@! TO.C,P1*
X145502380Y-94191904D02*
X144502380Y-94191904D01*
X144502380Y-94572857D01*
X144550000Y-94668095D01*
X144597619Y-94715714D01*
X144692857Y-94763333D01*
X144835714Y-94763333D01*
X144930952Y-94715714D01*
X144978571Y-94668095D01*
X145026190Y-94572857D01*
X145026190Y-94191904D01*
X145502380Y-95715714D02*
X145502380Y-95144285D01*
X145502380Y-95430000D02*
X144502380Y-95430000D01*
X144645238Y-95334761D01*
X144740476Y-95239523D01*
X144788095Y-95144285D01*
G04 #@! TO.C,TP1*
D17*
X142510952Y-96661190D02*
X142225238Y-96661190D01*
X142368095Y-97161190D02*
X142368095Y-96661190D01*
X142058571Y-97161190D02*
X142058571Y-96661190D01*
X141868095Y-96661190D01*
X141820476Y-96685000D01*
X141796666Y-96708809D01*
X141772857Y-96756428D01*
X141772857Y-96827857D01*
X141796666Y-96875476D01*
X141820476Y-96899285D01*
X141868095Y-96923095D01*
X142058571Y-96923095D01*
X141296666Y-97161190D02*
X141582380Y-97161190D01*
X141439523Y-97161190D02*
X141439523Y-96661190D01*
X141487142Y-96732619D01*
X141534761Y-96780238D01*
X141582380Y-96804047D01*
G04 #@! TO.C,U3*
D15*
X161240204Y-88949081D02*
X161240204Y-89758605D01*
X161192585Y-89853843D01*
X161144966Y-89901462D01*
X161049728Y-89949081D01*
X160859252Y-89949081D01*
X160764014Y-89901462D01*
X160716395Y-89853843D01*
X160668776Y-89758605D01*
X160668776Y-88949081D01*
X160287823Y-88949081D02*
X159668776Y-88949081D01*
X160002109Y-89330034D01*
X159859252Y-89330034D01*
X159764014Y-89377653D01*
X159716395Y-89425272D01*
X159668776Y-89520510D01*
X159668776Y-89758605D01*
X159716395Y-89853843D01*
X159764014Y-89901462D01*
X159859252Y-89949081D01*
X160144966Y-89949081D01*
X160240204Y-89901462D01*
X160287823Y-89853843D01*
X160624490Y-91259081D02*
X161100680Y-91259081D01*
X161100680Y-90259081D01*
X160434014Y-90259081D02*
X159862585Y-90259081D01*
X160148300Y-91259081D02*
X160148300Y-90259081D01*
X158957823Y-91163843D02*
X159005442Y-91211462D01*
X159148300Y-91259081D01*
X159243538Y-91259081D01*
X159386395Y-91211462D01*
X159481633Y-91116224D01*
X159529252Y-91020986D01*
X159576871Y-90830510D01*
X159576871Y-90687653D01*
X159529252Y-90497177D01*
X159481633Y-90401939D01*
X159386395Y-90306701D01*
X159243538Y-90259081D01*
X159148300Y-90259081D01*
X159005442Y-90306701D01*
X158957823Y-90354320D01*
X158100680Y-90592415D02*
X158100680Y-91259081D01*
X158338776Y-90211462D02*
X158576871Y-90925748D01*
X157957823Y-90925748D01*
X157053061Y-91259081D02*
X157624490Y-91259081D01*
X157338776Y-91259081D02*
X157338776Y-90259081D01*
X157434014Y-90401939D01*
X157529252Y-90497177D01*
X157624490Y-90544796D01*
X156672109Y-90354320D02*
X156624490Y-90306701D01*
X156529252Y-90259081D01*
X156291157Y-90259081D01*
X156195919Y-90306701D01*
X156148300Y-90354320D01*
X156100680Y-90449558D01*
X156100680Y-90544796D01*
X156148300Y-90687653D01*
X156719728Y-91259081D01*
X156100680Y-91259081D01*
X155243538Y-90592415D02*
X155243538Y-91259081D01*
X155481633Y-90211462D02*
X155719728Y-90925748D01*
X155100680Y-90925748D01*
X155191400Y-89317381D02*
X155191400Y-89555477D01*
X155429495Y-89460239D02*
X155191400Y-89555477D01*
X154953304Y-89460239D01*
X155334257Y-89745953D02*
X155191400Y-89555477D01*
X155048542Y-89745953D01*
X155191400Y-89317381D02*
X155191400Y-89555477D01*
X155429495Y-89460239D02*
X155191400Y-89555477D01*
X154953304Y-89460239D01*
X155334257Y-89745953D02*
X155191400Y-89555477D01*
X155048542Y-89745953D01*
G04 #@! TO.C,C8*
D10*
X153743333Y-89443571D02*
X153767142Y-89467380D01*
X153838571Y-89491190D01*
X153886190Y-89491190D01*
X153957619Y-89467380D01*
X154005238Y-89419761D01*
X154029047Y-89372142D01*
X154052857Y-89276904D01*
X154052857Y-89205476D01*
X154029047Y-89110238D01*
X154005238Y-89062619D01*
X153957619Y-89015000D01*
X153886190Y-88991190D01*
X153838571Y-88991190D01*
X153767142Y-89015000D01*
X153743333Y-89038809D01*
X153457619Y-89205476D02*
X153505238Y-89181666D01*
X153529047Y-89157857D01*
X153552857Y-89110238D01*
X153552857Y-89086428D01*
X153529047Y-89038809D01*
X153505238Y-89015000D01*
X153457619Y-88991190D01*
X153362380Y-88991190D01*
X153314761Y-89015000D01*
X153290952Y-89038809D01*
X153267142Y-89086428D01*
X153267142Y-89110238D01*
X153290952Y-89157857D01*
X153314761Y-89181666D01*
X153362380Y-89205476D01*
X153457619Y-89205476D01*
X153505238Y-89229285D01*
X153529047Y-89253095D01*
X153552857Y-89300714D01*
X153552857Y-89395952D01*
X153529047Y-89443571D01*
X153505238Y-89467380D01*
X153457619Y-89491190D01*
X153362380Y-89491190D01*
X153314761Y-89467380D01*
X153290952Y-89443571D01*
X153267142Y-89395952D01*
X153267142Y-89300714D01*
X153290952Y-89253095D01*
X153314761Y-89229285D01*
X153362380Y-89205476D01*
G04 #@! TO.C,C3*
X152803333Y-87943571D02*
X152827142Y-87967380D01*
X152898571Y-87991190D01*
X152946190Y-87991190D01*
X153017619Y-87967380D01*
X153065238Y-87919761D01*
X153089047Y-87872142D01*
X153112857Y-87776904D01*
X153112857Y-87705476D01*
X153089047Y-87610238D01*
X153065238Y-87562619D01*
X153017619Y-87515000D01*
X152946190Y-87491190D01*
X152898571Y-87491190D01*
X152827142Y-87515000D01*
X152803333Y-87538809D01*
X152636666Y-87491190D02*
X152327142Y-87491190D01*
X152493809Y-87681666D01*
X152422380Y-87681666D01*
X152374761Y-87705476D01*
X152350952Y-87729285D01*
X152327142Y-87776904D01*
X152327142Y-87895952D01*
X152350952Y-87943571D01*
X152374761Y-87967380D01*
X152422380Y-87991190D01*
X152565238Y-87991190D01*
X152612857Y-87967380D01*
X152636666Y-87943571D01*
G04 #@! TO.C,TP9*
D14*
X144226428Y-102244285D02*
X143797857Y-102244285D01*
X144012142Y-102994285D02*
X144012142Y-102244285D01*
X143547857Y-102994285D02*
X143547857Y-102244285D01*
X143262142Y-102244285D01*
X143190714Y-102280000D01*
X143155000Y-102315714D01*
X143119285Y-102387142D01*
X143119285Y-102494285D01*
X143155000Y-102565714D01*
X143190714Y-102601428D01*
X143262142Y-102637142D01*
X143547857Y-102637142D01*
X142762142Y-102994285D02*
X142619285Y-102994285D01*
X142547857Y-102958571D01*
X142512142Y-102922857D01*
X142440714Y-102815714D01*
X142405000Y-102672857D01*
X142405000Y-102387142D01*
X142440714Y-102315714D01*
X142476428Y-102280000D01*
X142547857Y-102244285D01*
X142690714Y-102244285D01*
X142762142Y-102280000D01*
X142797857Y-102315714D01*
X142833571Y-102387142D01*
X142833571Y-102565714D01*
X142797857Y-102637142D01*
X142762142Y-102672857D01*
X142690714Y-102708571D01*
X142547857Y-102708571D01*
X142476428Y-102672857D01*
X142440714Y-102637142D01*
X142405000Y-102565714D01*
G04 #@! TO.C,TP5*
D17*
X164540952Y-96311190D02*
X164255238Y-96311190D01*
X164398095Y-96811190D02*
X164398095Y-96311190D01*
X164088571Y-96811190D02*
X164088571Y-96311190D01*
X163898095Y-96311190D01*
X163850476Y-96335000D01*
X163826666Y-96358809D01*
X163802857Y-96406428D01*
X163802857Y-96477857D01*
X163826666Y-96525476D01*
X163850476Y-96549285D01*
X163898095Y-96573095D01*
X164088571Y-96573095D01*
X163350476Y-96311190D02*
X163588571Y-96311190D01*
X163612380Y-96549285D01*
X163588571Y-96525476D01*
X163540952Y-96501666D01*
X163421904Y-96501666D01*
X163374285Y-96525476D01*
X163350476Y-96549285D01*
X163326666Y-96596904D01*
X163326666Y-96715952D01*
X163350476Y-96763571D01*
X163374285Y-96787380D01*
X163421904Y-96811190D01*
X163540952Y-96811190D01*
X163588571Y-96787380D01*
X163612380Y-96763571D01*
G04 #@! TO.C,TP4*
D14*
X164460952Y-97811190D02*
X164175238Y-97811190D01*
X164318095Y-98311190D02*
X164318095Y-97811190D01*
X164008571Y-98311190D02*
X164008571Y-97811190D01*
X163818095Y-97811190D01*
X163770476Y-97835000D01*
X163746666Y-97858809D01*
X163722857Y-97906428D01*
X163722857Y-97977857D01*
X163746666Y-98025476D01*
X163770476Y-98049285D01*
X163818095Y-98073095D01*
X164008571Y-98073095D01*
X163294285Y-97977857D02*
X163294285Y-98311190D01*
X163413333Y-97787380D02*
X163532380Y-98144523D01*
X163222857Y-98144523D01*
G04 #@! TO.C,TP3*
X162546428Y-98684285D02*
X162117857Y-98684285D01*
X162332142Y-99434285D02*
X162332142Y-98684285D01*
X161867857Y-99434285D02*
X161867857Y-98684285D01*
X161582142Y-98684285D01*
X161510714Y-98720000D01*
X161475000Y-98755714D01*
X161439285Y-98827142D01*
X161439285Y-98934285D01*
X161475000Y-99005714D01*
X161510714Y-99041428D01*
X161582142Y-99077142D01*
X161867857Y-99077142D01*
X161189285Y-98684285D02*
X160725000Y-98684285D01*
X160975000Y-98970000D01*
X160867857Y-98970000D01*
X160796428Y-99005714D01*
X160760714Y-99041428D01*
X160725000Y-99112857D01*
X160725000Y-99291428D01*
X160760714Y-99362857D01*
X160796428Y-99398571D01*
X160867857Y-99434285D01*
X161082142Y-99434285D01*
X161153571Y-99398571D01*
X161189285Y-99362857D01*
G04 #@! TO.C,R8*
X163825000Y-102474285D02*
X164075000Y-102117142D01*
X164253571Y-102474285D02*
X164253571Y-101724285D01*
X163967857Y-101724285D01*
X163896428Y-101760000D01*
X163860714Y-101795714D01*
X163825000Y-101867142D01*
X163825000Y-101974285D01*
X163860714Y-102045714D01*
X163896428Y-102081428D01*
X163967857Y-102117142D01*
X164253571Y-102117142D01*
X163396428Y-102045714D02*
X163467857Y-102010000D01*
X163503571Y-101974285D01*
X163539285Y-101902857D01*
X163539285Y-101867142D01*
X163503571Y-101795714D01*
X163467857Y-101760000D01*
X163396428Y-101724285D01*
X163253571Y-101724285D01*
X163182142Y-101760000D01*
X163146428Y-101795714D01*
X163110714Y-101867142D01*
X163110714Y-101902857D01*
X163146428Y-101974285D01*
X163182142Y-102010000D01*
X163253571Y-102045714D01*
X163396428Y-102045714D01*
X163467857Y-102081428D01*
X163503571Y-102117142D01*
X163539285Y-102188571D01*
X163539285Y-102331428D01*
X163503571Y-102402857D01*
X163467857Y-102438571D01*
X163396428Y-102474285D01*
X163253571Y-102474285D01*
X163182142Y-102438571D01*
X163146428Y-102402857D01*
X163110714Y-102331428D01*
X163110714Y-102188571D01*
X163146428Y-102117142D01*
X163182142Y-102081428D01*
X163253571Y-102045714D01*
G04 #@! TO.C,R3*
D15*
X152126666Y-104257380D02*
X152460000Y-103781190D01*
X152698095Y-104257380D02*
X152698095Y-103257380D01*
X152317142Y-103257380D01*
X152221904Y-103305000D01*
X152174285Y-103352619D01*
X152126666Y-103447857D01*
X152126666Y-103590714D01*
X152174285Y-103685952D01*
X152221904Y-103733571D01*
X152317142Y-103781190D01*
X152698095Y-103781190D01*
X151793333Y-103257380D02*
X151174285Y-103257380D01*
X151507619Y-103638333D01*
X151364761Y-103638333D01*
X151269523Y-103685952D01*
X151221904Y-103733571D01*
X151174285Y-103828809D01*
X151174285Y-104066904D01*
X151221904Y-104162142D01*
X151269523Y-104209761D01*
X151364761Y-104257380D01*
X151650476Y-104257380D01*
X151745714Y-104209761D01*
X151793333Y-104162142D01*
G04 #@! TO.C,R2*
X150136666Y-102977380D02*
X150470000Y-102501190D01*
X150708095Y-102977380D02*
X150708095Y-101977380D01*
X150327142Y-101977380D01*
X150231904Y-102025000D01*
X150184285Y-102072619D01*
X150136666Y-102167857D01*
X150136666Y-102310714D01*
X150184285Y-102405952D01*
X150231904Y-102453571D01*
X150327142Y-102501190D01*
X150708095Y-102501190D01*
X149755714Y-102072619D02*
X149708095Y-102025000D01*
X149612857Y-101977380D01*
X149374761Y-101977380D01*
X149279523Y-102025000D01*
X149231904Y-102072619D01*
X149184285Y-102167857D01*
X149184285Y-102263095D01*
X149231904Y-102405952D01*
X149803333Y-102977380D01*
X149184285Y-102977380D01*
G04 #@! TO.C,R1*
X150216668Y-103917380D02*
X150550002Y-103441190D01*
X150788097Y-103917380D02*
X150788097Y-102917380D01*
X150407144Y-102917380D01*
X150311906Y-102965000D01*
X150264287Y-103012619D01*
X150216668Y-103107857D01*
X150216668Y-103250714D01*
X150264287Y-103345952D01*
X150311906Y-103393571D01*
X150407144Y-103441190D01*
X150788097Y-103441190D01*
X149264287Y-103917380D02*
X149835716Y-103917380D01*
X149550002Y-103917380D02*
X149550002Y-102917380D01*
X149645240Y-103060238D01*
X149740478Y-103155476D01*
X149835716Y-103203095D01*
G04 #@! TO.C,C1*
D10*
X147868571Y-88226666D02*
X147892380Y-88202857D01*
X147916190Y-88131428D01*
X147916190Y-88083809D01*
X147892380Y-88012380D01*
X147844761Y-87964761D01*
X147797142Y-87940952D01*
X147701904Y-87917142D01*
X147630476Y-87917142D01*
X147535238Y-87940952D01*
X147487619Y-87964761D01*
X147440000Y-88012380D01*
X147416190Y-88083809D01*
X147416190Y-88131428D01*
X147440000Y-88202857D01*
X147463809Y-88226666D01*
X147916190Y-88702857D02*
X147916190Y-88417142D01*
X147916190Y-88560000D02*
X147416190Y-88560000D01*
X147487619Y-88512380D01*
X147535238Y-88464761D01*
X147559047Y-88417142D01*
G04 #@! TO.C,C10*
D14*
X160542142Y-103502857D02*
X160577857Y-103538571D01*
X160685000Y-103574285D01*
X160756428Y-103574285D01*
X160863571Y-103538571D01*
X160935000Y-103467142D01*
X160970714Y-103395714D01*
X161006428Y-103252857D01*
X161006428Y-103145714D01*
X160970714Y-103002857D01*
X160935000Y-102931428D01*
X160863571Y-102860000D01*
X160756428Y-102824285D01*
X160685000Y-102824285D01*
X160577857Y-102860000D01*
X160542142Y-102895714D01*
X159827857Y-103574285D02*
X160256428Y-103574285D01*
X160042142Y-103574285D02*
X160042142Y-102824285D01*
X160113571Y-102931428D01*
X160185000Y-103002857D01*
X160256428Y-103038571D01*
X159363571Y-102824285D02*
X159292142Y-102824285D01*
X159220714Y-102860000D01*
X159185000Y-102895714D01*
X159149285Y-102967142D01*
X159113571Y-103110000D01*
X159113571Y-103288571D01*
X159149285Y-103431428D01*
X159185000Y-103502857D01*
X159220714Y-103538571D01*
X159292142Y-103574285D01*
X159363571Y-103574285D01*
X159435000Y-103538571D01*
X159470714Y-103502857D01*
X159506428Y-103431428D01*
X159542142Y-103288571D01*
X159542142Y-103110000D01*
X159506428Y-102967142D01*
X159470714Y-102895714D01*
X159435000Y-102860000D01*
X159363571Y-102824285D01*
G04 #@! TO.C,C2*
D10*
X156323333Y-90883571D02*
X156347142Y-90907380D01*
X156418571Y-90931190D01*
X156466190Y-90931190D01*
X156537619Y-90907380D01*
X156585238Y-90859761D01*
X156609047Y-90812142D01*
X156632857Y-90716904D01*
X156632857Y-90645476D01*
X156609047Y-90550238D01*
X156585238Y-90502619D01*
X156537619Y-90455000D01*
X156466190Y-90431190D01*
X156418571Y-90431190D01*
X156347142Y-90455000D01*
X156323333Y-90478809D01*
X156132857Y-90478809D02*
X156109047Y-90455000D01*
X156061428Y-90431190D01*
X155942380Y-90431190D01*
X155894761Y-90455000D01*
X155870952Y-90478809D01*
X155847142Y-90526428D01*
X155847142Y-90574047D01*
X155870952Y-90645476D01*
X156156666Y-90931190D01*
X155847142Y-90931190D01*
G04 #@! TO.C,C4*
D15*
X146156666Y-105232142D02*
X146204285Y-105279761D01*
X146347142Y-105327380D01*
X146442380Y-105327380D01*
X146585238Y-105279761D01*
X146680476Y-105184523D01*
X146728095Y-105089285D01*
X146775714Y-104898809D01*
X146775714Y-104755952D01*
X146728095Y-104565476D01*
X146680476Y-104470238D01*
X146585238Y-104375000D01*
X146442380Y-104327380D01*
X146347142Y-104327380D01*
X146204285Y-104375000D01*
X146156666Y-104422619D01*
X145299523Y-104660714D02*
X145299523Y-105327380D01*
X145537619Y-104279761D02*
X145775714Y-104994047D01*
X145156666Y-104994047D01*
G04 #@! TO.C,C7*
X147807142Y-97948333D02*
X147854761Y-97900714D01*
X147902380Y-97757857D01*
X147902380Y-97662619D01*
X147854761Y-97519761D01*
X147759523Y-97424523D01*
X147664285Y-97376904D01*
X147473809Y-97329285D01*
X147330952Y-97329285D01*
X147140476Y-97376904D01*
X147045238Y-97424523D01*
X146950000Y-97519761D01*
X146902380Y-97662619D01*
X146902380Y-97757857D01*
X146950000Y-97900714D01*
X146997619Y-97948333D01*
X146902380Y-98281666D02*
X146902380Y-98948333D01*
X147902380Y-98519761D01*
G04 #@! TD*
M02*
