%TF.GenerationSoftware,KiCad,Pcbnew,5.1.12-84ad8e8a86~92~ubuntu20.04.1*%
%TF.CreationDate,2022-06-27T22:47:40-07:00*%
%TF.ProjectId,ZooidsShield,5a6f6f69-6473-4536-9869-656c642e6b69,rev?*%
%TF.SameCoordinates,Original*%
%TF.FileFunction,Copper,L2,Bot*%
%TF.FilePolarity,Positive*%
%FSLAX46Y46*%
G04 Gerber Fmt 4.6, Leading zero omitted, Abs format (unit mm)*
G04 Created by KiCad (PCBNEW 5.1.12-84ad8e8a86~92~ubuntu20.04.1) date 2022-06-27 22:47:40*
%MOMM*%
%LPD*%
G01*
G04 APERTURE LIST*
%TA.AperFunction,SMDPad,CuDef*%
%ADD10R,0.500000X1.000000*%
%TD*%
%TA.AperFunction,SMDPad,CuDef*%
%ADD11C,0.100000*%
%TD*%
%TA.AperFunction,ViaPad*%
%ADD12C,0.600000*%
%TD*%
%TA.AperFunction,Conductor*%
%ADD13C,0.200000*%
%TD*%
%TA.AperFunction,Conductor*%
%ADD14C,0.500000*%
%TD*%
G04 APERTURE END LIST*
D10*
%TO.P,G,1*%
%TO.N,GND*%
X149771100Y-98069400D03*
%TD*%
%TO.P,V,1*%
%TO.N,+3V3*%
X148788120Y-98079560D03*
%TD*%
%TO.P,B,1*%
%TO.N,/O2*%
X152844500Y-97726500D03*
%TD*%
%TO.P,A,1*%
%TO.N,/O1*%
X151765000Y-97790000D03*
%TD*%
%TO.P,E,1*%
%TO.N,/ENA*%
X150749000Y-98615500D03*
%TD*%
%TO.P,R2,2*%
%TO.N,/O2*%
%TA.AperFunction,SMDPad,CuDef*%
G36*
G01*
X153093000Y-99389500D02*
X152723000Y-99389500D01*
G75*
G02*
X152588000Y-99254500I0J135000D01*
G01*
X152588000Y-98984500D01*
G75*
G02*
X152723000Y-98849500I135000J0D01*
G01*
X153093000Y-98849500D01*
G75*
G02*
X153228000Y-98984500I0J-135000D01*
G01*
X153228000Y-99254500D01*
G75*
G02*
X153093000Y-99389500I-135000J0D01*
G01*
G37*
%TD.AperFunction*%
%TO.P,R2,1*%
%TO.N,+3V3*%
%TA.AperFunction,SMDPad,CuDef*%
G36*
G01*
X153093000Y-100409500D02*
X152723000Y-100409500D01*
G75*
G02*
X152588000Y-100274500I0J135000D01*
G01*
X152588000Y-100004500D01*
G75*
G02*
X152723000Y-99869500I135000J0D01*
G01*
X153093000Y-99869500D01*
G75*
G02*
X153228000Y-100004500I0J-135000D01*
G01*
X153228000Y-100274500D01*
G75*
G02*
X153093000Y-100409500I-135000J0D01*
G01*
G37*
%TD.AperFunction*%
%TD*%
%TO.P,R1,2*%
%TO.N,/O1*%
%TA.AperFunction,SMDPad,CuDef*%
G36*
G01*
X152013500Y-99135500D02*
X151643500Y-99135500D01*
G75*
G02*
X151508500Y-99000500I0J135000D01*
G01*
X151508500Y-98730500D01*
G75*
G02*
X151643500Y-98595500I135000J0D01*
G01*
X152013500Y-98595500D01*
G75*
G02*
X152148500Y-98730500I0J-135000D01*
G01*
X152148500Y-99000500D01*
G75*
G02*
X152013500Y-99135500I-135000J0D01*
G01*
G37*
%TD.AperFunction*%
%TO.P,R1,1*%
%TO.N,+3V3*%
%TA.AperFunction,SMDPad,CuDef*%
G36*
G01*
X152013500Y-100155500D02*
X151643500Y-100155500D01*
G75*
G02*
X151508500Y-100020500I0J135000D01*
G01*
X151508500Y-99750500D01*
G75*
G02*
X151643500Y-99615500I135000J0D01*
G01*
X152013500Y-99615500D01*
G75*
G02*
X152148500Y-99750500I0J-135000D01*
G01*
X152148500Y-100020500D01*
G75*
G02*
X152013500Y-100155500I-135000J0D01*
G01*
G37*
%TD.AperFunction*%
%TD*%
%TO.P,C2,2*%
%TO.N,GND*%
%TA.AperFunction,SMDPad,CuDef*%
G36*
G01*
X149478400Y-99382400D02*
X149478400Y-99042400D01*
G75*
G02*
X149618400Y-98902400I140000J0D01*
G01*
X149898400Y-98902400D01*
G75*
G02*
X150038400Y-99042400I0J-140000D01*
G01*
X150038400Y-99382400D01*
G75*
G02*
X149898400Y-99522400I-140000J0D01*
G01*
X149618400Y-99522400D01*
G75*
G02*
X149478400Y-99382400I0J140000D01*
G01*
G37*
%TD.AperFunction*%
%TO.P,C2,1*%
%TO.N,+3V3*%
%TA.AperFunction,SMDPad,CuDef*%
G36*
G01*
X148518400Y-99382400D02*
X148518400Y-99042400D01*
G75*
G02*
X148658400Y-98902400I140000J0D01*
G01*
X148938400Y-98902400D01*
G75*
G02*
X149078400Y-99042400I0J-140000D01*
G01*
X149078400Y-99382400D01*
G75*
G02*
X148938400Y-99522400I-140000J0D01*
G01*
X148658400Y-99522400D01*
G75*
G02*
X148518400Y-99382400I0J140000D01*
G01*
G37*
%TD.AperFunction*%
%TD*%
%TO.P,R3,2*%
%TO.N,/SDA*%
%TA.AperFunction,SMDPad,CuDef*%
G36*
G01*
X152723000Y-101901500D02*
X153093000Y-101901500D01*
G75*
G02*
X153228000Y-102036500I0J-135000D01*
G01*
X153228000Y-102306500D01*
G75*
G02*
X153093000Y-102441500I-135000J0D01*
G01*
X152723000Y-102441500D01*
G75*
G02*
X152588000Y-102306500I0J135000D01*
G01*
X152588000Y-102036500D01*
G75*
G02*
X152723000Y-101901500I135000J0D01*
G01*
G37*
%TD.AperFunction*%
%TO.P,R3,1*%
%TO.N,+3V3*%
%TA.AperFunction,SMDPad,CuDef*%
G36*
G01*
X152723000Y-100881500D02*
X153093000Y-100881500D01*
G75*
G02*
X153228000Y-101016500I0J-135000D01*
G01*
X153228000Y-101286500D01*
G75*
G02*
X153093000Y-101421500I-135000J0D01*
G01*
X152723000Y-101421500D01*
G75*
G02*
X152588000Y-101286500I0J135000D01*
G01*
X152588000Y-101016500D01*
G75*
G02*
X152723000Y-100881500I135000J0D01*
G01*
G37*
%TD.AperFunction*%
%TD*%
%TA.AperFunction,SMDPad,CuDef*%
D11*
%TO.P,U2,14*%
%TO.N,/SDA*%
G36*
X148895932Y-101947441D02*
G01*
X148910001Y-101951709D01*
X148922968Y-101958640D01*
X148934333Y-101967967D01*
X148943660Y-101979332D01*
X148950591Y-101992299D01*
X148954859Y-102006368D01*
X148956300Y-102021000D01*
X148956300Y-102496000D01*
X148954859Y-102510632D01*
X148950591Y-102524701D01*
X148943660Y-102537668D01*
X148934333Y-102549033D01*
X148922968Y-102558360D01*
X148910001Y-102565291D01*
X148895932Y-102569559D01*
X148881300Y-102571000D01*
X148631300Y-102571000D01*
X148616668Y-102569559D01*
X148602599Y-102565291D01*
X148589632Y-102558360D01*
X148578267Y-102549033D01*
X148568940Y-102537668D01*
X148562009Y-102524701D01*
X148557741Y-102510632D01*
X148556300Y-102496000D01*
X148556300Y-102227066D01*
X148557741Y-102212434D01*
X148562009Y-102198365D01*
X148568940Y-102185398D01*
X148578267Y-102174033D01*
X148784333Y-101967967D01*
X148795698Y-101958640D01*
X148808665Y-101951709D01*
X148822734Y-101947441D01*
X148837366Y-101946000D01*
X148881300Y-101946000D01*
X148895932Y-101947441D01*
G37*
%TD.AperFunction*%
%TO.P,U2,13*%
%TO.N,/SCL*%
%TA.AperFunction,SMDPad,CuDef*%
G36*
G01*
X149056300Y-102471000D02*
X149056300Y-102046000D01*
G75*
G02*
X149156300Y-101946000I100000J0D01*
G01*
X149356300Y-101946000D01*
G75*
G02*
X149456300Y-102046000I0J-100000D01*
G01*
X149456300Y-102471000D01*
G75*
G02*
X149356300Y-102571000I-100000J0D01*
G01*
X149156300Y-102571000D01*
G75*
G02*
X149056300Y-102471000I0J100000D01*
G01*
G37*
%TD.AperFunction*%
%TA.AperFunction,SMDPad,CuDef*%
%TO.P,U2,12*%
%TO.N,+3V3*%
G36*
X149689866Y-101947441D02*
G01*
X149703935Y-101951709D01*
X149716902Y-101958640D01*
X149728267Y-101967967D01*
X149934333Y-102174033D01*
X149943660Y-102185398D01*
X149950591Y-102198365D01*
X149954859Y-102212434D01*
X149956300Y-102227066D01*
X149956300Y-102496000D01*
X149954859Y-102510632D01*
X149950591Y-102524701D01*
X149943660Y-102537668D01*
X149934333Y-102549033D01*
X149922968Y-102558360D01*
X149910001Y-102565291D01*
X149895932Y-102569559D01*
X149881300Y-102571000D01*
X149631300Y-102571000D01*
X149616668Y-102569559D01*
X149602599Y-102565291D01*
X149589632Y-102558360D01*
X149578267Y-102549033D01*
X149568940Y-102537668D01*
X149562009Y-102524701D01*
X149557741Y-102510632D01*
X149556300Y-102496000D01*
X149556300Y-102021000D01*
X149557741Y-102006368D01*
X149562009Y-101992299D01*
X149568940Y-101979332D01*
X149578267Y-101967967D01*
X149589632Y-101958640D01*
X149602599Y-101951709D01*
X149616668Y-101947441D01*
X149631300Y-101946000D01*
X149675234Y-101946000D01*
X149689866Y-101947441D01*
G37*
%TD.AperFunction*%
%TA.AperFunction,SMDPad,CuDef*%
%TO.P,U2,11*%
G36*
X150670932Y-101897441D02*
G01*
X150685001Y-101901709D01*
X150697968Y-101908640D01*
X150709333Y-101917967D01*
X150718660Y-101929332D01*
X150725591Y-101942299D01*
X150729859Y-101956368D01*
X150731300Y-101971000D01*
X150731300Y-102221000D01*
X150729859Y-102235632D01*
X150725591Y-102249701D01*
X150718660Y-102262668D01*
X150709333Y-102274033D01*
X150697968Y-102283360D01*
X150685001Y-102290291D01*
X150670932Y-102294559D01*
X150656300Y-102296000D01*
X150387366Y-102296000D01*
X150372734Y-102294559D01*
X150358665Y-102290291D01*
X150345698Y-102283360D01*
X150334333Y-102274033D01*
X150128267Y-102067967D01*
X150118940Y-102056602D01*
X150112009Y-102043635D01*
X150107741Y-102029566D01*
X150106300Y-102014934D01*
X150106300Y-101971000D01*
X150107741Y-101956368D01*
X150112009Y-101942299D01*
X150118940Y-101929332D01*
X150128267Y-101917967D01*
X150139632Y-101908640D01*
X150152599Y-101901709D01*
X150166668Y-101897441D01*
X150181300Y-101896000D01*
X150656300Y-101896000D01*
X150670932Y-101897441D01*
G37*
%TD.AperFunction*%
%TO.P,U2,10*%
%TO.N,Net-(U2-Pad10)*%
%TA.AperFunction,SMDPad,CuDef*%
G36*
G01*
X150106300Y-101696000D02*
X150106300Y-101496000D01*
G75*
G02*
X150206300Y-101396000I100000J0D01*
G01*
X150631300Y-101396000D01*
G75*
G02*
X150731300Y-101496000I0J-100000D01*
G01*
X150731300Y-101696000D01*
G75*
G02*
X150631300Y-101796000I-100000J0D01*
G01*
X150206300Y-101796000D01*
G75*
G02*
X150106300Y-101696000I0J100000D01*
G01*
G37*
%TD.AperFunction*%
%TO.P,U2,9*%
%TO.N,Net-(U2-Pad9)*%
%TA.AperFunction,SMDPad,CuDef*%
G36*
G01*
X150106300Y-101196000D02*
X150106300Y-100996000D01*
G75*
G02*
X150206300Y-100896000I100000J0D01*
G01*
X150631300Y-100896000D01*
G75*
G02*
X150731300Y-100996000I0J-100000D01*
G01*
X150731300Y-101196000D01*
G75*
G02*
X150631300Y-101296000I-100000J0D01*
G01*
X150206300Y-101296000D01*
G75*
G02*
X150106300Y-101196000I0J100000D01*
G01*
G37*
%TD.AperFunction*%
%TA.AperFunction,SMDPad,CuDef*%
%TO.P,U2,8*%
%TO.N,+3V3*%
G36*
X150670932Y-100397441D02*
G01*
X150685001Y-100401709D01*
X150697968Y-100408640D01*
X150709333Y-100417967D01*
X150718660Y-100429332D01*
X150725591Y-100442299D01*
X150729859Y-100456368D01*
X150731300Y-100471000D01*
X150731300Y-100721000D01*
X150729859Y-100735632D01*
X150725591Y-100749701D01*
X150718660Y-100762668D01*
X150709333Y-100774033D01*
X150697968Y-100783360D01*
X150685001Y-100790291D01*
X150670932Y-100794559D01*
X150656300Y-100796000D01*
X150181300Y-100796000D01*
X150166668Y-100794559D01*
X150152599Y-100790291D01*
X150139632Y-100783360D01*
X150128267Y-100774033D01*
X150118940Y-100762668D01*
X150112009Y-100749701D01*
X150107741Y-100735632D01*
X150106300Y-100721000D01*
X150106300Y-100677066D01*
X150107741Y-100662434D01*
X150112009Y-100648365D01*
X150118940Y-100635398D01*
X150128267Y-100624033D01*
X150334333Y-100417967D01*
X150345698Y-100408640D01*
X150358665Y-100401709D01*
X150372734Y-100397441D01*
X150387366Y-100396000D01*
X150656300Y-100396000D01*
X150670932Y-100397441D01*
G37*
%TD.AperFunction*%
%TA.AperFunction,SMDPad,CuDef*%
%TO.P,U2,7*%
%TO.N,GND*%
G36*
X149895932Y-100122441D02*
G01*
X149910001Y-100126709D01*
X149922968Y-100133640D01*
X149934333Y-100142967D01*
X149943660Y-100154332D01*
X149950591Y-100167299D01*
X149954859Y-100181368D01*
X149956300Y-100196000D01*
X149956300Y-100464934D01*
X149954859Y-100479566D01*
X149950591Y-100493635D01*
X149943660Y-100506602D01*
X149934333Y-100517967D01*
X149728267Y-100724033D01*
X149716902Y-100733360D01*
X149703935Y-100740291D01*
X149689866Y-100744559D01*
X149675234Y-100746000D01*
X149631300Y-100746000D01*
X149616668Y-100744559D01*
X149602599Y-100740291D01*
X149589632Y-100733360D01*
X149578267Y-100724033D01*
X149568940Y-100712668D01*
X149562009Y-100699701D01*
X149557741Y-100685632D01*
X149556300Y-100671000D01*
X149556300Y-100196000D01*
X149557741Y-100181368D01*
X149562009Y-100167299D01*
X149568940Y-100154332D01*
X149578267Y-100142967D01*
X149589632Y-100133640D01*
X149602599Y-100126709D01*
X149616668Y-100122441D01*
X149631300Y-100121000D01*
X149881300Y-100121000D01*
X149895932Y-100122441D01*
G37*
%TD.AperFunction*%
%TO.P,U2,6*%
%TA.AperFunction,SMDPad,CuDef*%
G36*
G01*
X149056300Y-100646000D02*
X149056300Y-100221000D01*
G75*
G02*
X149156300Y-100121000I100000J0D01*
G01*
X149356300Y-100121000D01*
G75*
G02*
X149456300Y-100221000I0J-100000D01*
G01*
X149456300Y-100646000D01*
G75*
G02*
X149356300Y-100746000I-100000J0D01*
G01*
X149156300Y-100746000D01*
G75*
G02*
X149056300Y-100646000I0J100000D01*
G01*
G37*
%TD.AperFunction*%
%TA.AperFunction,SMDPad,CuDef*%
%TO.P,U2,5*%
%TO.N,+3V3*%
G36*
X148895932Y-100122441D02*
G01*
X148910001Y-100126709D01*
X148922968Y-100133640D01*
X148934333Y-100142967D01*
X148943660Y-100154332D01*
X148950591Y-100167299D01*
X148954859Y-100181368D01*
X148956300Y-100196000D01*
X148956300Y-100671000D01*
X148954859Y-100685632D01*
X148950591Y-100699701D01*
X148943660Y-100712668D01*
X148934333Y-100724033D01*
X148922968Y-100733360D01*
X148910001Y-100740291D01*
X148895932Y-100744559D01*
X148881300Y-100746000D01*
X148837366Y-100746000D01*
X148822734Y-100744559D01*
X148808665Y-100740291D01*
X148795698Y-100733360D01*
X148784333Y-100724033D01*
X148578267Y-100517967D01*
X148568940Y-100506602D01*
X148562009Y-100493635D01*
X148557741Y-100479566D01*
X148556300Y-100464934D01*
X148556300Y-100196000D01*
X148557741Y-100181368D01*
X148562009Y-100167299D01*
X148568940Y-100154332D01*
X148578267Y-100142967D01*
X148589632Y-100133640D01*
X148602599Y-100126709D01*
X148616668Y-100122441D01*
X148631300Y-100121000D01*
X148881300Y-100121000D01*
X148895932Y-100122441D01*
G37*
%TD.AperFunction*%
%TA.AperFunction,SMDPad,CuDef*%
%TO.P,U2,4*%
%TO.N,/INT*%
G36*
X148139866Y-100397441D02*
G01*
X148153935Y-100401709D01*
X148166902Y-100408640D01*
X148178267Y-100417967D01*
X148384333Y-100624033D01*
X148393660Y-100635398D01*
X148400591Y-100648365D01*
X148404859Y-100662434D01*
X148406300Y-100677066D01*
X148406300Y-100721000D01*
X148404859Y-100735632D01*
X148400591Y-100749701D01*
X148393660Y-100762668D01*
X148384333Y-100774033D01*
X148372968Y-100783360D01*
X148360001Y-100790291D01*
X148345932Y-100794559D01*
X148331300Y-100796000D01*
X147856300Y-100796000D01*
X147841668Y-100794559D01*
X147827599Y-100790291D01*
X147814632Y-100783360D01*
X147803267Y-100774033D01*
X147793940Y-100762668D01*
X147787009Y-100749701D01*
X147782741Y-100735632D01*
X147781300Y-100721000D01*
X147781300Y-100471000D01*
X147782741Y-100456368D01*
X147787009Y-100442299D01*
X147793940Y-100429332D01*
X147803267Y-100417967D01*
X147814632Y-100408640D01*
X147827599Y-100401709D01*
X147841668Y-100397441D01*
X147856300Y-100396000D01*
X148125234Y-100396000D01*
X148139866Y-100397441D01*
G37*
%TD.AperFunction*%
%TO.P,U2,3*%
%TO.N,+3V3*%
%TA.AperFunction,SMDPad,CuDef*%
G36*
G01*
X147781300Y-101196000D02*
X147781300Y-100996000D01*
G75*
G02*
X147881300Y-100896000I100000J0D01*
G01*
X148306300Y-100896000D01*
G75*
G02*
X148406300Y-100996000I0J-100000D01*
G01*
X148406300Y-101196000D01*
G75*
G02*
X148306300Y-101296000I-100000J0D01*
G01*
X147881300Y-101296000D01*
G75*
G02*
X147781300Y-101196000I0J100000D01*
G01*
G37*
%TD.AperFunction*%
%TO.P,U2,2*%
%TA.AperFunction,SMDPad,CuDef*%
G36*
G01*
X147781300Y-101696000D02*
X147781300Y-101496000D01*
G75*
G02*
X147881300Y-101396000I100000J0D01*
G01*
X148306300Y-101396000D01*
G75*
G02*
X148406300Y-101496000I0J-100000D01*
G01*
X148406300Y-101696000D01*
G75*
G02*
X148306300Y-101796000I-100000J0D01*
G01*
X147881300Y-101796000D01*
G75*
G02*
X147781300Y-101696000I0J100000D01*
G01*
G37*
%TD.AperFunction*%
%TA.AperFunction,SMDPad,CuDef*%
%TO.P,U2,1*%
G36*
X148345932Y-101897441D02*
G01*
X148360001Y-101901709D01*
X148372968Y-101908640D01*
X148384333Y-101917967D01*
X148393660Y-101929332D01*
X148400591Y-101942299D01*
X148404859Y-101956368D01*
X148406300Y-101971000D01*
X148406300Y-102014934D01*
X148404859Y-102029566D01*
X148400591Y-102043635D01*
X148393660Y-102056602D01*
X148384333Y-102067967D01*
X148178267Y-102274033D01*
X148166902Y-102283360D01*
X148153935Y-102290291D01*
X148139866Y-102294559D01*
X148125234Y-102296000D01*
X147856300Y-102296000D01*
X147841668Y-102294559D01*
X147827599Y-102290291D01*
X147814632Y-102283360D01*
X147803267Y-102274033D01*
X147793940Y-102262668D01*
X147787009Y-102249701D01*
X147782741Y-102235632D01*
X147781300Y-102221000D01*
X147781300Y-101971000D01*
X147782741Y-101956368D01*
X147787009Y-101942299D01*
X147793940Y-101929332D01*
X147803267Y-101917967D01*
X147814632Y-101908640D01*
X147827599Y-101901709D01*
X147841668Y-101897441D01*
X147856300Y-101896000D01*
X148331300Y-101896000D01*
X148345932Y-101897441D01*
G37*
%TD.AperFunction*%
%TD*%
%TO.P,R4,2*%
%TO.N,/SCL*%
%TA.AperFunction,SMDPad,CuDef*%
G36*
G01*
X151643500Y-101647500D02*
X152013500Y-101647500D01*
G75*
G02*
X152148500Y-101782500I0J-135000D01*
G01*
X152148500Y-102052500D01*
G75*
G02*
X152013500Y-102187500I-135000J0D01*
G01*
X151643500Y-102187500D01*
G75*
G02*
X151508500Y-102052500I0J135000D01*
G01*
X151508500Y-101782500D01*
G75*
G02*
X151643500Y-101647500I135000J0D01*
G01*
G37*
%TD.AperFunction*%
%TO.P,R4,1*%
%TO.N,+3V3*%
%TA.AperFunction,SMDPad,CuDef*%
G36*
G01*
X151643500Y-100627500D02*
X152013500Y-100627500D01*
G75*
G02*
X152148500Y-100762500I0J-135000D01*
G01*
X152148500Y-101032500D01*
G75*
G02*
X152013500Y-101167500I-135000J0D01*
G01*
X151643500Y-101167500D01*
G75*
G02*
X151508500Y-101032500I0J135000D01*
G01*
X151508500Y-100762500D01*
G75*
G02*
X151643500Y-100627500I135000J0D01*
G01*
G37*
%TD.AperFunction*%
%TD*%
D12*
%TO.N,GND*%
X149809200Y-97586800D03*
%TO.N,+3V3*%
X148793200Y-97586800D03*
%TO.N,/SDA*%
X152806400Y-102971600D03*
%TO.N,/SCL*%
X151790400Y-102706980D03*
%TO.N,/INT*%
X147777200Y-102971600D03*
%TO.N,/O2*%
X152844500Y-97726500D03*
%TO.N,/O1*%
X151765000Y-97790000D03*
%TO.N,/ENA*%
X150749000Y-97599500D03*
%TD*%
D13*
%TO.N,GND*%
X149809200Y-97586800D02*
X149809200Y-97586800D01*
X149256300Y-100433500D02*
X149756300Y-100433500D01*
X149756300Y-99214500D02*
X149758400Y-99212400D01*
X149756300Y-100433500D02*
X149756300Y-99214500D01*
X149758400Y-97637600D02*
X149809200Y-97586800D01*
X149758400Y-99212400D02*
X149758400Y-97637600D01*
%TO.N,+3V3*%
X150921980Y-100596000D02*
X151221190Y-100895210D01*
X150418800Y-100596000D02*
X150921980Y-100596000D01*
X148793200Y-99466400D02*
X148793200Y-97586800D01*
X148793200Y-97586800D02*
X148793200Y-97586800D01*
X149047200Y-101396800D02*
X148756300Y-101105900D01*
X149402800Y-101396800D02*
X149047200Y-101396800D01*
X149756300Y-101750300D02*
X149402800Y-101396800D01*
X149756300Y-102258500D02*
X149756300Y-101750300D01*
X148093800Y-101096000D02*
X148093800Y-102096000D01*
X152971500Y-100330000D02*
X152971500Y-100139500D01*
X152400000Y-100901500D02*
X152971500Y-100330000D01*
X151650700Y-100901500D02*
X151841200Y-100711000D01*
X151227480Y-100901500D02*
X151650700Y-100901500D01*
X151221190Y-100895210D02*
X151227480Y-100901500D01*
X152650000Y-101151500D02*
X152400000Y-100901500D01*
X152908000Y-101151500D02*
X152650000Y-101151500D01*
X151130000Y-100986400D02*
X151221190Y-100895210D01*
X151130000Y-101904800D02*
X151130000Y-100986400D01*
X150938800Y-102096000D02*
X151130000Y-101904800D01*
X150418800Y-102096000D02*
X150938800Y-102096000D01*
X148717000Y-100472800D02*
X148756300Y-100433500D01*
X148717000Y-101066600D02*
X148717000Y-100472800D01*
X148756300Y-101105900D02*
X148717000Y-101066600D01*
X148717000Y-100394200D02*
X148756300Y-100433500D01*
X148717000Y-99293800D02*
X148717000Y-100394200D01*
X148798400Y-99212400D02*
X148717000Y-99293800D01*
X151841200Y-100901500D02*
X152400000Y-100901500D01*
X151841200Y-99898200D02*
X151841200Y-100901500D01*
X151765000Y-99822000D02*
X151841200Y-99898200D01*
X150406800Y-102108000D02*
X150418800Y-102096000D01*
X150090500Y-102258500D02*
X150241000Y-102108000D01*
X150241000Y-102108000D02*
X150406800Y-102108000D01*
X149756300Y-102258500D02*
X150090500Y-102258500D01*
X148756300Y-101179700D02*
X148756300Y-101105900D01*
X148340000Y-101596000D02*
X148756300Y-101179700D01*
X148093800Y-101596000D02*
X148340000Y-101596000D01*
%TO.N,/SDA*%
X152806400Y-102971600D02*
X152908000Y-102870000D01*
X152471010Y-103306990D02*
X152806400Y-102971600D01*
X149280990Y-103306990D02*
X152471010Y-103306990D01*
X148756300Y-102258500D02*
X148756300Y-102782300D01*
X148756300Y-102782300D02*
X149280990Y-103306990D01*
X152806400Y-102971600D02*
X152806400Y-102082600D01*
%TO.N,/SCL*%
X151590401Y-102906979D02*
X151790400Y-102706980D01*
X149256300Y-102672700D02*
X149490579Y-102906979D01*
X149256300Y-102258500D02*
X149256300Y-102672700D01*
X149490579Y-102906979D02*
X151590401Y-102906979D01*
X151841200Y-102656180D02*
X151790400Y-102706980D01*
X151790400Y-101955600D02*
X151828500Y-101917500D01*
X151790400Y-102706980D02*
X151790400Y-101955600D01*
%TO.N,/INT*%
X147777200Y-103022400D02*
X147777200Y-103022400D01*
X147320000Y-100838000D02*
X147320000Y-102514400D01*
X147320000Y-102514400D02*
X147777200Y-102971600D01*
X147562000Y-100596000D02*
X147320000Y-100838000D01*
X148093800Y-100596000D02*
X147562000Y-100596000D01*
D14*
%TO.N,/O2*%
X152908000Y-98802000D02*
X152908000Y-97790000D01*
X152844500Y-97726500D02*
X152844500Y-97726500D01*
D13*
X152908000Y-97790000D02*
X152844500Y-97726500D01*
X152908000Y-99119500D02*
X152908000Y-97790000D01*
D14*
%TO.N,/O1*%
X151765000Y-98679000D02*
X151765000Y-97790000D01*
X151765000Y-97790000D02*
X151765000Y-97790000D01*
%TO.N,/ENA*%
X150749000Y-98615500D02*
X150749000Y-97599500D01*
%TD*%
M02*
